<svg width="1000" height="600" viewBox="0 0 1000 600" fill="none" xmlns="http://www.w3.org/2000/svg">
<rect width="1000" height="600" fill="#34383C"/>
<rect y="29.8965" width="1000" height="206.186" fill="#35393E"/>
<ellipse cx="118" cy="110.309" rx="60" ry="61.8557" fill="#40C6F3"/>
<rect x="206" y="67.0098" width="200" height="51.5464" rx="15" fill="white"/>
<rect x="434" y="79.3809" width="120" height="30.9278" rx="15" fill="#585B60"/>
<rect x="200" y="145.361" width="400" height="51.5464" rx="15" fill="#494D51"/>
<rect y="236.082" width="1000" height="206.186" fill="#35393E"/>
<ellipse cx="118" cy="322.68" rx="60" ry="61.8557" fill="#30801E"/>
<rect x="206" y="279.381" width="200" height="51.5464" rx="15" fill="white"/>
<rect x="434" y="291.752" width="120" height="30.9278" rx="15" fill="#585B60"/>
<rect x="200" y="357.732" width="600" height="51.5464" rx="15" fill="#F73939"/>
<rect width="60.9349" height="20.3116" rx="10.1558" transform="matrix(0.696258 -0.717792 0.696258 0.717792 812 331.367)" fill="#FF0000"/>
<ellipse cx="810" cy="347.423" rx="10" ry="10.3093" fill="#FF0000"/>
<rect x="20" y="236.082" width="960" height="10.3093" rx="5" fill="#555B60"/>
<rect x="14" y="464.949" width="960" height="10.3093" rx="5" fill="#555B60"/>
<path d="M26.5 507.783C26.5 500.88 32.0964 495.283 39 495.283H959C965.904 495.283 971.5 500.88 971.5 507.783V539.639C971.5 546.542 965.904 552.139 959 552.139H39C32.0964 552.139 26.5 546.542 26.5 539.639V507.783Z" fill="#40444A" stroke="#5D6064" stroke-width="5"/>
<path fill-rule="evenodd" clip-rule="evenodd" d="M77 524.464C77 533.004 70.2843 539.928 62 539.928C53.7157 539.928 47 533.004 47 524.464C47 515.923 53.7157 509 62 509C70.2843 509 77 515.923 77 524.464ZM60 513.123H64C64.5523 513.123 65 513.571 65 514.123V521.371H72C72.5523 521.371 73 521.819 73 522.371V526.557C73 527.109 72.5523 527.557 72 527.557H65V534.803C65 535.356 64.5523 535.803 64 535.803H60C59.4477 535.803 59 535.356 59 534.803V527.557H52C51.4477 527.557 51 527.109 51 526.557V522.371C51 521.819 51.4477 521.371 52 521.371H59V514.123C59 513.571 59.4477 513.123 60 513.123Z" fill="#C4C4C4"/>
<path d="M119.717 525.611L119.99 527.486L120.391 525.797L123.203 515.875H124.785L127.529 525.797L127.92 527.516L128.223 525.602L130.43 515.875H132.314L128.867 530.094H127.158L124.229 519.732L124.004 518.648L123.779 519.732L120.742 530.094H119.033L115.596 515.875H117.471L119.717 525.611ZM140.312 530.094C140.208 529.885 140.124 529.514 140.059 528.98C139.219 529.853 138.216 530.289 137.051 530.289C136.009 530.289 135.153 529.996 134.482 529.41C133.818 528.818 133.486 528.069 133.486 527.164C133.486 526.064 133.903 525.211 134.736 524.605C135.576 523.993 136.755 523.688 138.271 523.688H140.029V522.857C140.029 522.226 139.84 521.725 139.463 521.354C139.085 520.976 138.529 520.787 137.793 520.787C137.148 520.787 136.608 520.95 136.172 521.275C135.736 521.601 135.518 521.995 135.518 522.457H133.701C133.701 521.93 133.887 521.422 134.258 520.934C134.635 520.439 135.143 520.048 135.781 519.762C136.426 519.475 137.132 519.332 137.9 519.332C139.118 519.332 140.072 519.638 140.762 520.25C141.452 520.855 141.81 521.692 141.836 522.76V527.623C141.836 528.593 141.96 529.365 142.207 529.938V530.094H140.312ZM137.314 528.717C137.881 528.717 138.418 528.57 138.926 528.277C139.434 527.984 139.801 527.604 140.029 527.135V524.967H138.613C136.4 524.967 135.293 525.615 135.293 526.91C135.293 527.477 135.482 527.919 135.859 528.238C136.237 528.557 136.722 528.717 137.314 528.717ZM147.119 516.969V519.527H149.092V520.924H147.119V527.477C147.119 527.9 147.207 528.219 147.383 528.434C147.559 528.642 147.858 528.746 148.281 528.746C148.49 528.746 148.776 528.707 149.141 528.629V530.094C148.665 530.224 148.203 530.289 147.754 530.289C146.947 530.289 146.338 530.045 145.928 529.557C145.518 529.068 145.312 528.375 145.312 527.477V520.924H143.389V519.527H145.312V516.969H147.119ZM155.449 528.814C156.094 528.814 156.657 528.619 157.139 528.229C157.62 527.838 157.887 527.35 157.939 526.764H159.648C159.616 527.369 159.408 527.945 159.023 528.492C158.639 529.039 158.125 529.475 157.48 529.801C156.842 530.126 156.165 530.289 155.449 530.289C154.01 530.289 152.865 529.811 152.012 528.854C151.165 527.89 150.742 526.575 150.742 524.908V524.605C150.742 523.577 150.931 522.662 151.309 521.861C151.686 521.061 152.227 520.439 152.93 519.996C153.639 519.553 154.476 519.332 155.439 519.332C156.624 519.332 157.607 519.687 158.389 520.396C159.176 521.106 159.596 522.027 159.648 523.16H157.939C157.887 522.477 157.627 521.917 157.158 521.48C156.696 521.038 156.123 520.816 155.439 520.816C154.521 520.816 153.809 521.148 153.301 521.812C152.799 522.47 152.549 523.424 152.549 524.674V525.016C152.549 526.233 152.799 527.171 153.301 527.828C153.802 528.486 154.518 528.814 155.449 528.814ZM163.486 520.807C164.287 519.824 165.329 519.332 166.611 519.332C168.844 519.332 169.971 520.592 169.99 523.111V530.094H168.184V523.102C168.177 522.34 168.001 521.777 167.656 521.412C167.318 521.048 166.787 520.865 166.064 520.865C165.479 520.865 164.964 521.021 164.521 521.334C164.079 521.646 163.734 522.057 163.486 522.564V530.094H161.68V515.094H163.486V520.807ZM177.178 524.713C177.178 523.678 177.38 522.747 177.783 521.92C178.193 521.093 178.76 520.455 179.482 520.006C180.212 519.557 181.042 519.332 181.973 519.332C183.411 519.332 184.574 519.83 185.459 520.826C186.351 521.822 186.797 523.147 186.797 524.801V524.928C186.797 525.956 186.598 526.881 186.201 527.701C185.811 528.515 185.247 529.15 184.512 529.605C183.783 530.061 182.943 530.289 181.992 530.289C180.56 530.289 179.398 529.791 178.506 528.795C177.62 527.799 177.178 526.48 177.178 524.84V524.713ZM178.994 524.928C178.994 526.1 179.264 527.04 179.805 527.75C180.352 528.46 181.081 528.814 181.992 528.814C182.91 528.814 183.639 528.456 184.18 527.74C184.72 527.018 184.99 526.008 184.99 524.713C184.99 523.554 184.714 522.617 184.16 521.9C183.613 521.178 182.884 520.816 181.973 520.816C181.081 520.816 180.361 521.171 179.814 521.881C179.268 522.59 178.994 523.606 178.994 524.928ZM195.586 529.049C194.883 529.876 193.851 530.289 192.49 530.289C191.364 530.289 190.505 529.964 189.912 529.312C189.326 528.655 189.03 527.685 189.023 526.402V519.527H190.83V526.354C190.83 527.955 191.481 528.756 192.783 528.756C194.163 528.756 195.081 528.242 195.537 527.213V519.527H197.344V530.094H195.625L195.586 529.049ZM202.549 516.969V519.527H204.521V520.924H202.549V527.477C202.549 527.9 202.637 528.219 202.812 528.434C202.988 528.642 203.288 528.746 203.711 528.746C203.919 528.746 204.206 528.707 204.57 528.629V530.094C204.095 530.224 203.633 530.289 203.184 530.289C202.376 530.289 201.768 530.045 201.357 529.557C200.947 529.068 200.742 528.375 200.742 527.477V520.924H198.818V519.527H200.742V516.969H202.549ZM220.547 524.928C220.547 526.542 220.176 527.841 219.434 528.824C218.691 529.801 217.695 530.289 216.445 530.289C215.111 530.289 214.079 529.817 213.35 528.873L213.262 530.094H211.602V515.094H213.408V520.689C214.137 519.785 215.143 519.332 216.426 519.332C217.708 519.332 218.714 519.817 219.443 520.787C220.179 521.757 220.547 523.085 220.547 524.771V524.928ZM218.74 524.723C218.74 523.492 218.503 522.542 218.027 521.871C217.552 521.201 216.868 520.865 215.977 520.865C214.785 520.865 213.929 521.419 213.408 522.525V527.096C213.962 528.202 214.824 528.756 215.996 528.756C216.862 528.756 217.536 528.421 218.018 527.75C218.499 527.079 218.74 526.07 218.74 524.723ZM229.355 529.049C228.652 529.876 227.62 530.289 226.26 530.289C225.133 530.289 224.274 529.964 223.682 529.312C223.096 528.655 222.799 527.685 222.793 526.402V519.527H224.6V526.354C224.6 527.955 225.251 528.756 226.553 528.756C227.933 528.756 228.851 528.242 229.307 527.213V519.527H231.113V530.094H229.395L229.355 529.049ZM238.105 528.814C238.75 528.814 239.313 528.619 239.795 528.229C240.277 527.838 240.544 527.35 240.596 526.764H242.305C242.272 527.369 242.064 527.945 241.68 528.492C241.296 529.039 240.781 529.475 240.137 529.801C239.499 530.126 238.822 530.289 238.105 530.289C236.667 530.289 235.521 529.811 234.668 528.854C233.822 527.89 233.398 526.575 233.398 524.908V524.605C233.398 523.577 233.587 522.662 233.965 521.861C234.342 521.061 234.883 520.439 235.586 519.996C236.296 519.553 237.132 519.332 238.096 519.332C239.281 519.332 240.264 519.687 241.045 520.396C241.833 521.106 242.253 522.027 242.305 523.16H240.596C240.544 522.477 240.283 521.917 239.814 521.48C239.352 521.038 238.779 520.816 238.096 520.816C237.178 520.816 236.465 521.148 235.957 521.812C235.456 522.47 235.205 523.424 235.205 524.674V525.016C235.205 526.233 235.456 527.171 235.957 527.828C236.458 528.486 237.174 528.814 238.105 528.814ZM247.285 525.201L246.152 526.383V530.094H244.346V515.094H246.152V524.166L247.119 523.004L250.41 519.527H252.607L248.496 523.941L253.086 530.094H250.967L247.285 525.201ZM253.994 524.713C253.994 523.678 254.196 522.747 254.6 521.92C255.01 521.093 255.576 520.455 256.299 520.006C257.028 519.557 257.858 519.332 258.789 519.332C260.228 519.332 261.39 519.83 262.275 520.826C263.167 521.822 263.613 523.147 263.613 524.801V524.928C263.613 525.956 263.415 526.881 263.018 527.701C262.627 528.515 262.064 529.15 261.328 529.605C260.599 530.061 259.759 530.289 258.809 530.289C257.376 530.289 256.214 529.791 255.322 528.795C254.437 527.799 253.994 526.48 253.994 524.84V524.713ZM255.811 524.928C255.811 526.1 256.081 527.04 256.621 527.75C257.168 528.46 257.897 528.814 258.809 528.814C259.727 528.814 260.456 528.456 260.996 527.74C261.536 527.018 261.807 526.008 261.807 524.713C261.807 523.554 261.53 522.617 260.977 521.9C260.43 521.178 259.701 520.816 258.789 520.816C257.897 520.816 257.178 521.171 256.631 521.881C256.084 522.59 255.811 523.606 255.811 524.928ZM265.82 532.926L264.795 532.223C265.407 531.37 265.726 530.491 265.752 529.586V527.955H267.52V529.371C267.52 530.029 267.357 530.686 267.031 531.344C266.712 532.001 266.309 532.529 265.82 532.926ZM277.061 530.094H275.186V515.875H277.061V530.094ZM284.746 524.723C284.746 523.076 285.127 521.767 285.889 520.797C286.65 519.82 287.66 519.332 288.916 519.332C290.205 519.332 291.211 519.788 291.934 520.699L292.021 519.527H293.672V529.84C293.672 531.207 293.265 532.285 292.451 533.072C291.644 533.86 290.557 534.254 289.189 534.254C288.428 534.254 287.682 534.091 286.953 533.766C286.224 533.44 285.667 532.994 285.283 532.428L286.221 531.344C286.995 532.301 287.943 532.779 289.062 532.779C289.941 532.779 290.625 532.532 291.113 532.037C291.608 531.542 291.855 530.846 291.855 529.947V529.039C291.133 529.872 290.146 530.289 288.896 530.289C287.66 530.289 286.657 529.791 285.889 528.795C285.127 527.799 284.746 526.441 284.746 524.723ZM286.562 524.928C286.562 526.119 286.807 527.057 287.295 527.74C287.783 528.417 288.467 528.756 289.346 528.756C290.485 528.756 291.322 528.238 291.855 527.203V522.379C291.302 521.37 290.472 520.865 289.365 520.865C288.486 520.865 287.799 521.207 287.305 521.891C286.81 522.574 286.562 523.587 286.562 524.928ZM295.928 524.713C295.928 523.678 296.13 522.747 296.533 521.92C296.943 521.093 297.51 520.455 298.232 520.006C298.962 519.557 299.792 519.332 300.723 519.332C302.161 519.332 303.324 519.83 304.209 520.826C305.101 521.822 305.547 523.147 305.547 524.801V524.928C305.547 525.956 305.348 526.881 304.951 527.701C304.561 528.515 303.997 529.15 303.262 529.605C302.533 530.061 301.693 530.289 300.742 530.289C299.31 530.289 298.148 529.791 297.256 528.795C296.37 527.799 295.928 526.48 295.928 524.84V524.713ZM297.744 524.928C297.744 526.1 298.014 527.04 298.555 527.75C299.102 528.46 299.831 528.814 300.742 528.814C301.66 528.814 302.389 528.456 302.93 527.74C303.47 527.018 303.74 526.008 303.74 524.713C303.74 523.554 303.464 522.617 302.91 521.9C302.363 521.178 301.634 520.816 300.723 520.816C299.831 520.816 299.111 521.171 298.564 521.881C298.018 522.59 297.744 523.606 297.744 524.928ZM310.264 516.969V519.527H312.236V520.924H310.264V527.477C310.264 527.9 310.352 528.219 310.527 528.434C310.703 528.642 311.003 528.746 311.426 528.746C311.634 528.746 311.921 528.707 312.285 528.629V530.094C311.81 530.224 311.348 530.289 310.898 530.289C310.091 530.289 309.482 530.045 309.072 529.557C308.662 529.068 308.457 528.375 308.457 527.477V520.924H306.533V519.527H308.457V516.969H310.264ZM321.768 516.969V519.527H323.74V520.924H321.768V527.477C321.768 527.9 321.855 528.219 322.031 528.434C322.207 528.642 322.507 528.746 322.93 528.746C323.138 528.746 323.424 528.707 323.789 528.629V530.094C323.314 530.224 322.852 530.289 322.402 530.289C321.595 530.289 320.986 530.045 320.576 529.557C320.166 529.068 319.961 528.375 319.961 527.477V520.924H318.037V519.527H319.961V516.969H321.768ZM327.666 520.807C328.467 519.824 329.508 519.332 330.791 519.332C333.024 519.332 334.15 520.592 334.17 523.111V530.094H332.363V523.102C332.357 522.34 332.181 521.777 331.836 521.412C331.497 521.048 330.967 520.865 330.244 520.865C329.658 520.865 329.144 521.021 328.701 521.334C328.258 521.646 327.913 522.057 327.666 522.564V530.094H325.859V515.094H327.666V520.807ZM341.26 530.289C339.827 530.289 338.662 529.82 337.764 528.883C336.865 527.939 336.416 526.679 336.416 525.104V524.771C336.416 523.723 336.615 522.789 337.012 521.969C337.415 521.142 337.975 520.497 338.691 520.035C339.414 519.566 340.195 519.332 341.035 519.332C342.409 519.332 343.477 519.785 344.238 520.689C345 521.594 345.381 522.89 345.381 524.576V525.328H338.223C338.249 526.37 338.551 527.213 339.131 527.857C339.717 528.495 340.459 528.814 341.357 528.814C341.995 528.814 342.536 528.684 342.979 528.424C343.421 528.163 343.809 527.818 344.141 527.389L345.244 528.248C344.359 529.609 343.031 530.289 341.26 530.289ZM341.035 520.816C340.306 520.816 339.694 521.083 339.199 521.617C338.704 522.145 338.398 522.887 338.281 523.844H343.574V523.707C343.522 522.789 343.275 522.079 342.832 521.578C342.389 521.07 341.79 520.816 341.035 520.816ZM361.387 524.928C361.387 526.542 361.016 527.841 360.273 528.824C359.531 529.801 358.535 530.289 357.285 530.289C355.951 530.289 354.919 529.817 354.189 528.873L354.102 530.094H352.441V515.094H354.248V520.689C354.977 519.785 355.983 519.332 357.266 519.332C358.548 519.332 359.554 519.817 360.283 520.787C361.019 521.757 361.387 523.085 361.387 524.771V524.928ZM359.58 524.723C359.58 523.492 359.342 522.542 358.867 521.871C358.392 521.201 357.708 520.865 356.816 520.865C355.625 520.865 354.769 521.419 354.248 522.525V527.096C354.801 528.202 355.664 528.756 356.836 528.756C357.702 528.756 358.376 528.421 358.857 527.75C359.339 527.079 359.58 526.07 359.58 524.723ZM370.195 530.094C370.091 529.885 370.007 529.514 369.941 528.98C369.102 529.853 368.099 530.289 366.934 530.289C365.892 530.289 365.036 529.996 364.365 529.41C363.701 528.818 363.369 528.069 363.369 527.164C363.369 526.064 363.786 525.211 364.619 524.605C365.459 523.993 366.637 523.688 368.154 523.688H369.912V522.857C369.912 522.226 369.723 521.725 369.346 521.354C368.968 520.976 368.411 520.787 367.676 520.787C367.031 520.787 366.491 520.95 366.055 521.275C365.618 521.601 365.4 521.995 365.4 522.457H363.584C363.584 521.93 363.77 521.422 364.141 520.934C364.518 520.439 365.026 520.048 365.664 519.762C366.309 519.475 367.015 519.332 367.783 519.332C369.001 519.332 369.954 519.638 370.645 520.25C371.335 520.855 371.693 521.692 371.719 522.76V527.623C371.719 528.593 371.842 529.365 372.09 529.938V530.094H370.195ZM367.197 528.717C367.764 528.717 368.301 528.57 368.809 528.277C369.316 527.984 369.684 527.604 369.912 527.135V524.967H368.496C366.283 524.967 365.176 525.615 365.176 526.91C365.176 527.477 365.365 527.919 365.742 528.238C366.12 528.557 366.605 528.717 367.197 528.717ZM376.26 519.527L376.318 520.855C377.126 519.84 378.18 519.332 379.482 519.332C381.715 519.332 382.842 520.592 382.861 523.111V530.094H381.055V523.102C381.048 522.34 380.872 521.777 380.527 521.412C380.189 521.048 379.658 520.865 378.936 520.865C378.35 520.865 377.835 521.021 377.393 521.334C376.95 521.646 376.605 522.057 376.357 522.564V530.094H374.551V519.527H376.26ZM392.354 520.807C393.154 519.824 394.196 519.332 395.479 519.332C397.712 519.332 398.838 520.592 398.857 523.111V530.094H397.051V523.102C397.044 522.34 396.868 521.777 396.523 521.412C396.185 521.048 395.654 520.865 394.932 520.865C394.346 520.865 393.831 521.021 393.389 521.334C392.946 521.646 392.601 522.057 392.354 522.564V530.094H390.547V515.094H392.354V520.807ZM408.086 530.094C407.982 529.885 407.897 529.514 407.832 528.98C406.992 529.853 405.99 530.289 404.824 530.289C403.783 530.289 402.926 529.996 402.256 529.41C401.592 528.818 401.26 528.069 401.26 527.164C401.26 526.064 401.676 525.211 402.51 524.605C403.35 523.993 404.528 523.688 406.045 523.688H407.803V522.857C407.803 522.226 407.614 521.725 407.236 521.354C406.859 520.976 406.302 520.787 405.566 520.787C404.922 520.787 404.382 520.95 403.945 521.275C403.509 521.601 403.291 521.995 403.291 522.457H401.475C401.475 521.93 401.66 521.422 402.031 520.934C402.409 520.439 402.917 520.048 403.555 519.762C404.199 519.475 404.906 519.332 405.674 519.332C406.891 519.332 407.845 519.638 408.535 520.25C409.225 520.855 409.583 521.692 409.609 522.76V527.623C409.609 528.593 409.733 529.365 409.98 529.938V530.094H408.086ZM405.088 528.717C405.654 528.717 406.191 528.57 406.699 528.277C407.207 527.984 407.575 527.604 407.803 527.135V524.967H406.387C404.173 524.967 403.066 525.615 403.066 526.91C403.066 527.477 403.255 527.919 403.633 528.238C404.01 528.557 404.495 528.717 405.088 528.717ZM414.141 519.527L414.189 520.699C414.964 519.788 416.009 519.332 417.324 519.332C418.802 519.332 419.808 519.898 420.342 521.031C420.693 520.523 421.149 520.113 421.709 519.801C422.275 519.488 422.943 519.332 423.711 519.332C426.029 519.332 427.207 520.559 427.246 523.014V530.094H425.439V523.121C425.439 522.366 425.267 521.803 424.922 521.432C424.577 521.054 423.997 520.865 423.184 520.865C422.513 520.865 421.956 521.067 421.514 521.471C421.071 521.868 420.814 522.405 420.742 523.082V530.094H418.926V523.17C418.926 521.633 418.174 520.865 416.67 520.865C415.485 520.865 414.674 521.37 414.238 522.379V530.094H412.432V519.527H414.141ZM431.68 519.527L431.729 520.699C432.503 519.788 433.548 519.332 434.863 519.332C436.341 519.332 437.347 519.898 437.881 521.031C438.232 520.523 438.688 520.113 439.248 519.801C439.814 519.488 440.482 519.332 441.25 519.332C443.568 519.332 444.746 520.559 444.785 523.014V530.094H442.979V523.121C442.979 522.366 442.806 521.803 442.461 521.432C442.116 521.054 441.536 520.865 440.723 520.865C440.052 520.865 439.495 521.067 439.053 521.471C438.61 521.868 438.353 522.405 438.281 523.082V530.094H436.465V523.17C436.465 521.633 435.713 520.865 434.209 520.865C433.024 520.865 432.214 521.37 431.777 522.379V530.094H429.971V519.527H431.68ZM451.904 530.289C450.472 530.289 449.307 529.82 448.408 528.883C447.51 527.939 447.061 526.679 447.061 525.104V524.771C447.061 523.723 447.259 522.789 447.656 521.969C448.06 521.142 448.62 520.497 449.336 520.035C450.059 519.566 450.84 519.332 451.68 519.332C453.053 519.332 454.121 519.785 454.883 520.689C455.645 521.594 456.025 522.89 456.025 524.576V525.328H448.867C448.893 526.37 449.196 527.213 449.775 527.857C450.361 528.495 451.104 528.814 452.002 528.814C452.64 528.814 453.18 528.684 453.623 528.424C454.066 528.163 454.453 527.818 454.785 527.389L455.889 528.248C455.003 529.609 453.675 530.289 451.904 530.289ZM451.68 520.816C450.951 520.816 450.339 521.083 449.844 521.617C449.349 522.145 449.043 522.887 448.926 523.844H454.219V523.707C454.167 522.789 453.919 522.079 453.477 521.578C453.034 521.07 452.435 520.816 451.68 520.816ZM463.232 521.148C462.959 521.103 462.663 521.08 462.344 521.08C461.159 521.08 460.355 521.585 459.932 522.594V530.094H458.125V519.527H459.883L459.912 520.748C460.505 519.804 461.344 519.332 462.432 519.332C462.783 519.332 463.05 519.378 463.232 519.469V521.148ZM476.387 530.094C476.283 529.885 476.198 529.514 476.133 528.98C475.293 529.853 474.29 530.289 473.125 530.289C472.083 530.289 471.227 529.996 470.557 529.41C469.893 528.818 469.561 528.069 469.561 527.164C469.561 526.064 469.977 525.211 470.811 524.605C471.65 523.993 472.829 523.688 474.346 523.688H476.104V522.857C476.104 522.226 475.915 521.725 475.537 521.354C475.16 520.976 474.603 520.787 473.867 520.787C473.223 520.787 472.682 520.95 472.246 521.275C471.81 521.601 471.592 521.995 471.592 522.457H469.775C469.775 521.93 469.961 521.422 470.332 520.934C470.71 520.439 471.217 520.048 471.855 519.762C472.5 519.475 473.206 519.332 473.975 519.332C475.192 519.332 476.146 519.638 476.836 520.25C477.526 520.855 477.884 521.692 477.91 522.76V527.623C477.91 528.593 478.034 529.365 478.281 529.938V530.094H476.387ZM473.389 528.717C473.955 528.717 474.492 528.57 475 528.277C475.508 527.984 475.876 527.604 476.104 527.135V524.967H474.688C472.474 524.967 471.367 525.615 471.367 526.91C471.367 527.477 471.556 527.919 471.934 528.238C472.311 528.557 472.796 528.717 473.389 528.717ZM482.451 519.527L482.51 520.855C483.317 519.84 484.372 519.332 485.674 519.332C487.907 519.332 489.033 520.592 489.053 523.111V530.094H487.246V523.102C487.24 522.34 487.064 521.777 486.719 521.412C486.38 521.048 485.85 520.865 485.127 520.865C484.541 520.865 484.027 521.021 483.584 521.334C483.141 521.646 482.796 522.057 482.549 522.564V530.094H480.742V519.527H482.451ZM491.338 524.723C491.338 523.102 491.722 521.799 492.49 520.816C493.258 519.827 494.264 519.332 495.508 519.332C496.745 519.332 497.725 519.755 498.447 520.602V515.094H500.254V530.094H498.594L498.506 528.961C497.783 529.846 496.777 530.289 495.488 530.289C494.264 530.289 493.265 529.788 492.49 528.785C491.722 527.783 491.338 526.474 491.338 524.859V524.723ZM493.145 524.928C493.145 526.126 493.392 527.063 493.887 527.74C494.382 528.417 495.065 528.756 495.938 528.756C497.083 528.756 497.92 528.242 498.447 527.213V522.359C497.907 521.363 497.077 520.865 495.957 520.865C495.072 520.865 494.382 521.207 493.887 521.891C493.392 522.574 493.145 523.587 493.145 524.928ZM510.479 516.969V519.527H512.451V520.924H510.479V527.477C510.479 527.9 510.566 528.219 510.742 528.434C510.918 528.642 511.217 528.746 511.641 528.746C511.849 528.746 512.135 528.707 512.5 528.629V530.094C512.025 530.224 511.562 530.289 511.113 530.289C510.306 530.289 509.697 530.045 509.287 529.557C508.877 529.068 508.672 528.375 508.672 527.477V520.924H506.748V519.527H508.672V516.969H510.479ZM516.377 520.807C517.178 519.824 518.219 519.332 519.502 519.332C521.735 519.332 522.861 520.592 522.881 523.111V530.094H521.074V523.102C521.068 522.34 520.892 521.777 520.547 521.412C520.208 521.048 519.678 520.865 518.955 520.865C518.369 520.865 517.855 521.021 517.412 521.334C516.969 521.646 516.624 522.057 516.377 522.564V530.094H514.57V515.094H516.377V520.807ZM529.971 530.289C528.538 530.289 527.373 529.82 526.475 528.883C525.576 527.939 525.127 526.679 525.127 525.104V524.771C525.127 523.723 525.326 522.789 525.723 521.969C526.126 521.142 526.686 520.497 527.402 520.035C528.125 519.566 528.906 519.332 529.746 519.332C531.12 519.332 532.188 519.785 532.949 520.689C533.711 521.594 534.092 522.89 534.092 524.576V525.328H526.934C526.96 526.37 527.262 527.213 527.842 527.857C528.428 528.495 529.17 528.814 530.068 528.814C530.706 528.814 531.247 528.684 531.689 528.424C532.132 528.163 532.52 527.818 532.852 527.389L533.955 528.248C533.07 529.609 531.742 530.289 529.971 530.289ZM529.746 520.816C529.017 520.816 528.405 521.083 527.91 521.617C527.415 522.145 527.109 522.887 526.992 523.844H532.285V523.707C532.233 522.789 531.986 522.079 531.543 521.578C531.1 521.07 530.501 520.816 529.746 520.816ZM543.32 528.561H550.059V530.094H541.436V515.875H543.32V528.561ZM558.438 530.094C558.333 529.885 558.249 529.514 558.184 528.98C557.344 529.853 556.341 530.289 555.176 530.289C554.134 530.289 553.278 529.996 552.607 529.41C551.943 528.818 551.611 528.069 551.611 527.164C551.611 526.064 552.028 525.211 552.861 524.605C553.701 523.993 554.88 523.688 556.396 523.688H558.154V522.857C558.154 522.226 557.965 521.725 557.588 521.354C557.21 520.976 556.654 520.787 555.918 520.787C555.273 520.787 554.733 520.95 554.297 521.275C553.861 521.601 553.643 521.995 553.643 522.457H551.826C551.826 521.93 552.012 521.422 552.383 520.934C552.76 520.439 553.268 520.048 553.906 519.762C554.551 519.475 555.257 519.332 556.025 519.332C557.243 519.332 558.197 519.638 558.887 520.25C559.577 520.855 559.935 521.692 559.961 522.76V527.623C559.961 528.593 560.085 529.365 560.332 529.938V530.094H558.438ZM555.439 528.717C556.006 528.717 556.543 528.57 557.051 528.277C557.559 527.984 557.926 527.604 558.154 527.135V524.967H556.738C554.525 524.967 553.418 525.615 553.418 526.91C553.418 527.477 553.607 527.919 553.984 528.238C554.362 528.557 554.847 528.717 555.439 528.717ZM566.123 527.643L568.74 519.527H570.586L566.797 530.094H565.42L561.592 519.527H563.438L566.123 527.643ZM576.572 530.289C575.14 530.289 573.975 529.82 573.076 528.883C572.178 527.939 571.729 526.679 571.729 525.104V524.771C571.729 523.723 571.927 522.789 572.324 521.969C572.728 521.142 573.288 520.497 574.004 520.035C574.727 519.566 575.508 519.332 576.348 519.332C577.721 519.332 578.789 519.785 579.551 520.689C580.312 521.594 580.693 522.89 580.693 524.576V525.328H573.535C573.561 526.37 573.864 527.213 574.443 527.857C575.029 528.495 575.771 528.814 576.67 528.814C577.308 528.814 577.848 528.684 578.291 528.424C578.734 528.163 579.121 527.818 579.453 527.389L580.557 528.248C579.671 529.609 578.343 530.289 576.572 530.289ZM576.348 520.816C575.618 520.816 575.007 521.083 574.512 521.617C574.017 522.145 573.711 522.887 573.594 523.844H578.887V523.707C578.835 522.789 578.587 522.079 578.145 521.578C577.702 521.07 577.103 520.816 576.348 520.816ZM584.502 519.527L584.561 520.855C585.368 519.84 586.423 519.332 587.725 519.332C589.958 519.332 591.084 520.592 591.104 523.111V530.094H589.297V523.102C589.29 522.34 589.115 521.777 588.77 521.412C588.431 521.048 587.9 520.865 587.178 520.865C586.592 520.865 586.077 521.021 585.635 521.334C585.192 521.646 584.847 522.057 584.6 522.564V530.094H582.793V519.527H584.502ZM593.389 524.723C593.389 523.102 593.773 521.799 594.541 520.816C595.309 519.827 596.315 519.332 597.559 519.332C598.796 519.332 599.775 519.755 600.498 520.602V515.094H602.305V530.094H600.645L600.557 528.961C599.834 529.846 598.828 530.289 597.539 530.289C596.315 530.289 595.316 529.788 594.541 528.785C593.773 527.783 593.389 526.474 593.389 524.859V524.723ZM595.195 524.928C595.195 526.126 595.443 527.063 595.938 527.74C596.432 528.417 597.116 528.756 597.988 528.756C599.134 528.756 599.971 528.242 600.498 527.213V522.359C599.958 521.363 599.128 520.865 598.008 520.865C597.122 520.865 596.432 521.207 595.938 521.891C595.443 522.574 595.195 523.587 595.195 524.928ZM609.502 530.289C608.07 530.289 606.904 529.82 606.006 528.883C605.107 527.939 604.658 526.679 604.658 525.104V524.771C604.658 523.723 604.857 522.789 605.254 521.969C605.658 521.142 606.217 520.497 606.934 520.035C607.656 519.566 608.438 519.332 609.277 519.332C610.651 519.332 611.719 519.785 612.48 520.689C613.242 521.594 613.623 522.89 613.623 524.576V525.328H606.465C606.491 526.37 606.794 527.213 607.373 527.857C607.959 528.495 608.701 528.814 609.6 528.814C610.238 528.814 610.778 528.684 611.221 528.424C611.663 528.163 612.051 527.818 612.383 527.389L613.486 528.248C612.601 529.609 611.273 530.289 609.502 530.289ZM609.277 520.816C608.548 520.816 607.936 521.083 607.441 521.617C606.947 522.145 606.641 522.887 606.523 523.844H611.816V523.707C611.764 522.789 611.517 522.079 611.074 521.578C610.632 521.07 610.033 520.816 609.277 520.816ZM620.83 521.148C620.557 521.103 620.26 521.08 619.941 521.08C618.757 521.08 617.952 521.585 617.529 522.594V530.094H615.723V519.527H617.48L617.51 520.748C618.102 519.804 618.942 519.332 620.029 519.332C620.381 519.332 620.648 519.378 620.83 519.469V521.148ZM636.406 524.928C636.406 526.542 636.035 527.841 635.293 528.824C634.551 529.801 633.555 530.289 632.305 530.289C630.97 530.289 629.938 529.817 629.209 528.873L629.121 530.094H627.461V515.094H629.268V520.689C629.997 519.785 631.003 519.332 632.285 519.332C633.568 519.332 634.574 519.817 635.303 520.787C636.038 521.757 636.406 523.085 636.406 524.771V524.928ZM634.6 524.723C634.6 523.492 634.362 522.542 633.887 521.871C633.411 521.201 632.728 520.865 631.836 520.865C630.645 520.865 629.788 521.419 629.268 522.525V527.096C629.821 528.202 630.684 528.756 631.855 528.756C632.721 528.756 633.395 528.421 633.877 527.75C634.359 527.079 634.6 526.07 634.6 524.723ZM638.213 524.713C638.213 523.678 638.415 522.747 638.818 521.92C639.229 521.093 639.795 520.455 640.518 520.006C641.247 519.557 642.077 519.332 643.008 519.332C644.447 519.332 645.609 519.83 646.494 520.826C647.386 521.822 647.832 523.147 647.832 524.801V524.928C647.832 525.956 647.633 526.881 647.236 527.701C646.846 528.515 646.283 529.15 645.547 529.605C644.818 530.061 643.978 530.289 643.027 530.289C641.595 530.289 640.433 529.791 639.541 528.795C638.656 527.799 638.213 526.48 638.213 524.84V524.713ZM640.029 524.928C640.029 526.1 640.299 527.04 640.84 527.75C641.387 528.46 642.116 528.814 643.027 528.814C643.945 528.814 644.674 528.456 645.215 527.74C645.755 527.018 646.025 526.008 646.025 524.713C646.025 523.554 645.749 522.617 645.195 521.9C644.648 521.178 643.919 520.816 643.008 520.816C642.116 520.816 641.396 521.171 640.85 521.881C640.303 522.59 640.029 523.606 640.029 524.928ZM652.549 516.969V519.527H654.521V520.924H652.549V527.477C652.549 527.9 652.637 528.219 652.812 528.434C652.988 528.642 653.288 528.746 653.711 528.746C653.919 528.746 654.206 528.707 654.57 528.629V530.094C654.095 530.224 653.633 530.289 653.184 530.289C652.376 530.289 651.768 530.045 651.357 529.557C650.947 529.068 650.742 528.375 650.742 527.477V520.924H648.818V519.527H650.742V516.969H652.549ZM661.123 524.713C661.123 523.678 661.325 522.747 661.729 521.92C662.139 521.093 662.705 520.455 663.428 520.006C664.157 519.557 664.987 519.332 665.918 519.332C667.357 519.332 668.519 519.83 669.404 520.826C670.296 521.822 670.742 523.147 670.742 524.801V524.928C670.742 525.956 670.544 526.881 670.146 527.701C669.756 528.515 669.193 529.15 668.457 529.605C667.728 530.061 666.888 530.289 665.938 530.289C664.505 530.289 663.343 529.791 662.451 528.795C661.566 527.799 661.123 526.48 661.123 524.84V524.713ZM662.939 524.928C662.939 526.1 663.21 527.04 663.75 527.75C664.297 528.46 665.026 528.814 665.938 528.814C666.855 528.814 667.585 528.456 668.125 527.74C668.665 527.018 668.936 526.008 668.936 524.713C668.936 523.554 668.659 522.617 668.105 521.9C667.559 521.178 666.829 520.816 665.918 520.816C665.026 520.816 664.307 521.171 663.76 521.881C663.213 522.59 662.939 523.606 662.939 524.928ZM674.717 519.527L674.775 520.855C675.583 519.84 676.637 519.332 677.939 519.332C680.173 519.332 681.299 520.592 681.318 523.111V530.094H679.512V523.102C679.505 522.34 679.329 521.777 678.984 521.412C678.646 521.048 678.115 520.865 677.393 520.865C676.807 520.865 676.292 521.021 675.85 521.334C675.407 521.646 675.062 522.057 674.814 522.564V530.094H673.008V519.527H674.717ZM690.703 519.527L690.752 520.699C691.527 519.788 692.572 519.332 693.887 519.332C695.365 519.332 696.37 519.898 696.904 521.031C697.256 520.523 697.712 520.113 698.271 519.801C698.838 519.488 699.505 519.332 700.273 519.332C702.591 519.332 703.77 520.559 703.809 523.014V530.094H702.002V523.121C702.002 522.366 701.829 521.803 701.484 521.432C701.139 521.054 700.56 520.865 699.746 520.865C699.076 520.865 698.519 521.067 698.076 521.471C697.633 521.868 697.376 522.405 697.305 523.082V530.094H695.488V523.17C695.488 521.633 694.736 520.865 693.232 520.865C692.048 520.865 691.237 521.37 690.801 522.379V530.094H688.994V519.527H690.703ZM710 527.447L712.461 519.527H714.395L710.146 531.725C709.489 533.482 708.444 534.361 707.012 534.361L706.67 534.332L705.996 534.205V532.74L706.484 532.779C707.096 532.779 707.572 532.656 707.91 532.408C708.255 532.161 708.538 531.708 708.76 531.051L709.16 529.977L705.391 519.527H707.363L710 527.447ZM727.129 527.291C727.129 526.803 726.943 526.425 726.572 526.158C726.208 525.885 725.566 525.65 724.648 525.455C723.737 525.26 723.011 525.025 722.471 524.752C721.937 524.479 721.54 524.153 721.279 523.775C721.025 523.398 720.898 522.949 720.898 522.428C720.898 521.562 721.263 520.829 721.992 520.23C722.728 519.632 723.665 519.332 724.805 519.332C726.003 519.332 726.973 519.641 727.715 520.26C728.464 520.878 728.838 521.669 728.838 522.633H727.021C727.021 522.138 726.81 521.712 726.387 521.354C725.97 520.995 725.443 520.816 724.805 520.816C724.147 520.816 723.633 520.96 723.262 521.246C722.891 521.533 722.705 521.907 722.705 522.369C722.705 522.805 722.878 523.134 723.223 523.355C723.568 523.577 724.189 523.788 725.088 523.99C725.993 524.192 726.725 524.433 727.285 524.713C727.845 524.993 728.258 525.331 728.525 525.729C728.799 526.119 728.936 526.598 728.936 527.164C728.936 528.108 728.558 528.867 727.803 529.439C727.048 530.006 726.068 530.289 724.863 530.289C724.017 530.289 723.268 530.139 722.617 529.84C721.966 529.54 721.455 529.124 721.084 528.59C720.719 528.049 720.537 527.467 720.537 526.842H722.344C722.376 527.447 722.617 527.929 723.066 528.287C723.522 528.639 724.121 528.814 724.863 528.814C725.547 528.814 726.094 528.678 726.504 528.404C726.921 528.124 727.129 527.753 727.129 527.291ZM733.252 530.094H731.445V519.527H733.252V530.094ZM731.299 516.725C731.299 516.432 731.387 516.184 731.562 515.982C731.745 515.781 732.012 515.68 732.363 515.68C732.715 515.68 732.982 515.781 733.164 515.982C733.346 516.184 733.438 516.432 733.438 516.725C733.438 517.018 733.346 517.262 733.164 517.457C732.982 517.652 732.715 517.75 732.363 517.75C732.012 517.75 731.745 517.652 731.562 517.457C731.387 517.262 731.299 517.018 731.299 516.725ZM735.713 524.723C735.713 523.102 736.097 521.799 736.865 520.816C737.633 519.827 738.639 519.332 739.883 519.332C741.12 519.332 742.1 519.755 742.822 520.602V515.094H744.629V530.094H742.969L742.881 528.961C742.158 529.846 741.152 530.289 739.863 530.289C738.639 530.289 737.64 529.788 736.865 528.785C736.097 527.783 735.713 526.474 735.713 524.859V524.723ZM737.52 524.928C737.52 526.126 737.767 527.063 738.262 527.74C738.757 528.417 739.44 528.756 740.312 528.756C741.458 528.756 742.295 528.242 742.822 527.213V522.359C742.282 521.363 741.452 520.865 740.332 520.865C739.447 520.865 738.757 521.207 738.262 521.891C737.767 522.574 737.52 523.587 737.52 524.928ZM751.826 530.289C750.394 530.289 749.229 529.82 748.33 528.883C747.432 527.939 746.982 526.679 746.982 525.104V524.771C746.982 523.723 747.181 522.789 747.578 521.969C747.982 521.142 748.542 520.497 749.258 520.035C749.98 519.566 750.762 519.332 751.602 519.332C752.975 519.332 754.043 519.785 754.805 520.689C755.566 521.594 755.947 522.89 755.947 524.576V525.328H748.789C748.815 526.37 749.118 527.213 749.697 527.857C750.283 528.495 751.025 528.814 751.924 528.814C752.562 528.814 753.102 528.684 753.545 528.424C753.988 528.163 754.375 527.818 754.707 527.389L755.811 528.248C754.925 529.609 753.597 530.289 751.826 530.289ZM751.602 520.816C750.872 520.816 750.26 521.083 749.766 521.617C749.271 522.145 748.965 522.887 748.848 523.844H754.141V523.707C754.089 522.789 753.841 522.079 753.398 521.578C752.956 521.07 752.357 520.816 751.602 520.816ZM760.068 526.08H758.438L758.311 515.875H760.205L760.068 526.08ZM758.242 529.186C758.242 528.893 758.33 528.648 758.506 528.453C758.688 528.251 758.955 528.15 759.307 528.15C759.658 528.15 759.925 528.251 760.107 528.453C760.29 528.648 760.381 528.893 760.381 529.186C760.381 529.479 760.29 529.723 760.107 529.918C759.925 530.107 759.658 530.201 759.307 530.201C758.955 530.201 758.688 530.107 758.506 529.918C758.33 529.723 758.242 529.479 758.242 529.186Z" fill="white"/>
</svg>
