<svg width="1200" height="1400" viewBox="0 0 1200 1400" fill="none" xmlns="http://www.w3.org/2000/svg">
<path d="M614 1250C614 1222.39 636.386 1200 664 1200H714C741.614 1200 764 1222.39 764 1250C764 1277.61 741.614 1300 714 1300H664C636.386 1300 614 1277.61 614 1250Z" fill="#A5A1CC" fill-opacity="0.5"/>
<path d="M164 1350C164 1322.39 186.386 1300 214 1300H414C441.614 1300 464 1322.39 464 1350C464 1377.61 441.614 1400 414 1400H214C186.386 1400 164 1377.61 164 1350Z" fill="#A5A1CC" fill-opacity="0.5"/>
<path d="M836 1300C836 1272.39 858.386 1250 886 1250H1086C1113.61 1250 1136 1272.39 1136 1300C1136 1327.61 1113.61 1350 1086 1350H886C858.386 1350 836 1327.61 836 1300Z" fill="#A5A1CC" fill-opacity="0.5"/>
<path d="M714 1150C741.614 1150 764 1127.61 764 1100C764 1072.39 741.614 1050 714 1050H364C336.386 1050 314 1072.39 314 1100C314 1127.61 336.386 1150 364 1150H714Z" fill="#A5A1CC" fill-opacity="0.5"/>
<path d="M114 194.914C114 167.3 136.386 144.914 164 144.914H364C391.614 144.914 414 167.3 414 194.914C414 222.528 391.614 244.914 364 244.914H164C136.386 244.914 114 222.528 114 194.914Z" fill="#A5A1CC" fill-opacity="0.5"/>
<path d="M496 344.914C496 317.3 518.386 294.914 546 294.914H746C773.614 294.914 796 317.3 796 344.914C796 372.528 773.614 394.914 746 394.914H546C518.386 394.914 496 372.528 496 344.914Z" fill="#A5A1CC" fill-opacity="0.5"/>
<path d="M1114 244.914C1141.61 244.914 1164 222.528 1164 194.914C1164 167.3 1141.61 144.914 1114 144.914H764C736.386 144.914 714 167.3 714 194.914C714 222.528 736.386 244.914 764 244.914H1114Z" fill="#A5A1CC" fill-opacity="0.5"/>
<path d="M464 100C436.386 100 414 77.6142 414 50C414 22.3858 436.386 0 464 0H664C691.614 0 714 22.3858 714 50C714 77.6142 691.614 100 664 100H464Z" fill="#A5A1CC" fill-opacity="0.5"/>
<path d="M54.8486 517.912V469.938H103.335V461.003H54.8486V421.306H107.583V412.224H44.8877V517.912H54.8486ZM180.752 441.74H171.084V486.931C171.084 501.213 162.148 510.515 148.892 510.515C136.147 510.515 128.97 503.044 128.97 489.567V441.74H119.229V491.252C119.229 508.391 129.556 519.157 146.108 519.157C158.193 519.157 167.349 513.151 171.377 503.776H171.597V517.912H180.752V441.74ZM197.451 517.912H207.119V472.795C207.119 458.659 215.981 449.138 229.165 449.138C241.909 449.138 249.233 456.755 249.233 470.085V517.912H258.901V468.547C258.901 451.262 248.647 440.495 231.948 440.495C219.644 440.495 210.708 446.574 206.826 455.803H206.606V441.74H197.451V517.912ZM285.562 480.925C289.517 480.925 292.593 477.849 292.593 473.82C292.593 469.865 289.517 466.789 285.562 466.789C281.606 466.789 278.457 469.865 278.457 473.82C278.457 477.849 281.606 480.925 285.562 480.925ZM312.588 517.912H322.256V472.795C322.256 458.659 331.118 449.138 344.302 449.138C357.046 449.138 364.37 456.755 364.37 470.085V517.912H374.038V468.547C374.038 451.262 363.784 440.495 347.085 440.495C334.78 440.495 325.845 446.574 321.963 455.803H321.743V441.74H312.588V517.912ZM420.474 448.991C434.243 448.991 443.398 459.465 443.618 474.479H396.597C397.402 459.465 406.851 448.991 420.474 448.991ZM443.032 496.306C440.908 504.655 432.925 510.661 421.426 510.661C406.265 510.661 396.523 499.968 396.523 482.756V482.17H453.579V478.068C453.579 455.363 440.835 440.495 420.62 440.495C399.966 440.495 386.562 456.389 386.562 480.046C386.562 504.216 399.819 519.157 421.206 519.157C437.979 519.157 450.356 509.489 452.627 496.306H443.032ZM466.543 517.912H476.211V470.451C476.211 458.146 483.096 449.724 493.936 449.724C497.231 449.724 499.941 450.236 501.187 450.822V441.301C500.015 441.008 497.744 440.495 495.181 440.495C485.806 440.495 478.701 445.988 475.918 455.29H475.698V441.74H466.543V517.912ZM538.906 482.683V525.334H548.647V522.771H542.031V485.271H548.647V482.683H538.906ZM553.286 517.912H556.533V495.207H561.978V492.521H556.509V489.372C556.509 486.54 557.803 485.295 560.244 485.295C560.928 485.295 561.611 485.368 562.124 485.466V482.805C561.587 482.707 560.659 482.609 559.78 482.609C555.532 482.609 553.286 484.709 553.286 489.299V492.521H549.746V495.207H553.286V517.912ZM586.562 492.521H583.34V507.585C583.34 512.346 580.361 515.446 575.942 515.446C571.694 515.446 569.302 512.956 569.302 508.464V492.521H566.055V509.025C566.055 514.738 569.497 518.327 575.015 518.327C579.043 518.327 582.095 516.325 583.438 513.2H583.511V517.912H586.562V492.521ZM592.349 517.912H595.596V502.971C595.596 498.186 598.55 494.987 603.115 494.987C607.412 494.987 609.878 497.648 609.878 502.043V517.912H613.125V501.506C613.125 495.817 609.609 492.106 604.043 492.106C599.99 492.106 596.963 494.084 595.669 497.209H595.596V482.683H592.349V517.912ZM618.545 517.912H621.768V502.873C621.768 498.161 624.722 494.987 629.116 494.987C633.364 494.987 635.806 497.526 635.806 501.97V517.912H639.028V501.457C639.028 495.695 635.61 492.106 630.044 492.106C625.942 492.106 622.964 494.133 621.67 497.209H621.597V492.521H618.545V517.912ZM660.366 505.192V502.165H644.351V505.192H660.366ZM675.845 494.938C680.435 494.938 683.486 498.43 683.56 503.435H667.886C668.154 498.43 671.304 494.938 675.845 494.938ZM683.364 510.71C682.656 513.493 679.995 515.495 676.162 515.495C671.108 515.495 667.861 511.931 667.861 506.193V505.998H686.88V504.631C686.88 497.062 682.632 492.106 675.894 492.106C669.009 492.106 664.541 497.404 664.541 505.29C664.541 513.347 668.96 518.327 676.089 518.327C681.68 518.327 685.806 515.104 686.562 510.71H683.364ZM691.201 517.912H694.424V502.092C694.424 497.99 696.719 495.183 700.332 495.183C701.431 495.183 702.334 495.354 702.749 495.549V492.375C702.358 492.277 701.602 492.106 700.747 492.106C697.622 492.106 695.254 493.938 694.326 497.038H694.253V492.521H691.201V517.912ZM713.76 482.683H704.019V485.271H710.61V522.771H704.019V525.334H713.76V482.683ZM741.079 515.544C737.832 515.544 735.61 513.811 735.61 511.125C735.61 508.098 738.198 506.242 742.739 505.998L750.308 505.583L749.551 509.025C748.696 512.858 745.156 515.544 741.079 515.544ZM740.273 518.327C743.691 518.327 746.743 516.716 748.525 514.177H748.599L747.793 517.912H750.918L754.434 501.359C754.556 500.7 754.629 499.943 754.629 499.187C754.629 494.987 751.187 492.106 745.913 492.106C740.2 492.106 736.123 495.256 735.317 499.821H738.687C739.321 496.892 741.812 494.963 745.669 494.963C749.307 494.963 751.382 496.745 751.382 499.626C751.382 500.114 751.357 500.627 751.235 501.164L750.845 502.971L742.764 503.41C736.172 503.776 732.339 506.584 732.339 511.467C732.339 515.495 735.806 518.327 740.273 518.327ZM767.08 518.327C770.718 518.327 774.233 516.179 775.967 513.151H776.064L775.063 517.912H778.335L785.83 482.683H782.583L779.165 498.625H779.043C778.384 494.89 774.941 492.106 770.596 492.106C763.442 492.106 757.705 498.894 757.705 507.658C757.705 514.03 761.392 518.327 767.08 518.327ZM767.812 515.471C763.564 515.471 760.952 512.37 760.952 507.487C760.952 500.407 765.273 494.987 770.62 494.987C774.966 494.987 777.749 498.161 777.749 502.8C777.749 509.831 773.574 515.471 767.812 515.471ZM792.715 487.883C793.887 487.883 794.863 486.931 794.863 485.734C794.863 484.538 793.887 483.586 792.715 483.586C791.519 483.586 790.542 484.538 790.542 485.734C790.542 486.931 791.519 487.883 792.715 487.883ZM792.764 492.521H789.492L783.682 519.67C783.071 522.6 781.802 523.747 779.214 523.747C778.799 523.747 778.433 523.723 777.944 523.674L777.31 526.481C777.944 526.555 778.75 526.579 779.141 526.579C783.389 526.555 785.903 524.675 786.88 520.085L792.764 492.521ZM798.281 503.288C799.331 498.503 802.651 494.938 807.168 494.938C811.709 494.938 813.882 498.161 813.882 502.092C813.882 502.58 813.882 502.897 813.809 503.288H798.281ZM804.727 518.376C810.122 518.376 814.443 515.031 815.835 510.344H812.637C811.392 513.518 808.608 515.495 804.8 515.495C800.503 515.495 797.769 512.395 797.769 507.365C797.769 506.975 797.793 506.462 797.866 505.9H816.885C817.08 504.875 817.153 503.581 817.153 502.507C817.153 496.086 813.345 492.106 807.217 492.106C799.819 492.106 794.473 498.894 794.473 507.487C794.473 513.859 798.11 518.376 804.727 518.376ZM833.071 492.106C825.552 492.106 820.107 498.771 820.107 507.39C820.107 513.811 823.843 518.327 830.435 518.327C835.586 518.327 839.883 515.007 841.274 510.344H838.076C836.855 513.444 834.048 515.471 830.459 515.471C826.235 515.471 823.428 512.297 823.428 507.268C823.428 500.163 827.48 494.963 833.047 494.963C837.051 494.963 839.565 497.502 839.81 500.798H842.959C842.959 500.7 842.959 500.749 842.959 500.676C842.788 496.062 839.297 492.106 833.071 492.106ZM852.578 518.059C853.164 518.059 854.165 517.985 854.751 517.888L855.337 515.153C854.946 515.202 854.214 515.227 853.677 515.227C851.479 515.227 850.112 514.323 850.112 512.346C850.112 511.735 850.21 511.027 850.405 510.197L853.579 495.231H859.048L859.609 492.521H854.141L855.532 486.027H852.261L850.918 492.521H847.183L846.621 495.231H850.332L846.963 511.076C846.792 511.882 846.694 512.59 846.694 513.249C846.694 516.447 849.16 518.059 852.578 518.059ZM858.535 517.912H861.807L867.202 492.521H863.931L858.535 517.912ZM867.007 487.883C868.179 487.883 869.155 486.931 869.155 485.734C869.155 484.538 868.179 483.586 867.007 483.586C865.811 483.586 864.834 484.538 864.834 485.734C864.834 486.931 865.811 487.883 867.007 487.883ZM870.498 492.521L874.551 517.912H878.164L892.837 492.521H889.248L877.041 514.299H876.943L873.721 492.521H870.498ZM895.352 503.288C896.401 498.503 899.722 494.938 904.238 494.938C908.779 494.938 910.952 498.161 910.952 502.092C910.952 502.58 910.952 502.897 910.879 503.288H895.352ZM901.797 518.376C907.192 518.376 911.514 515.031 912.905 510.344H909.707C908.462 513.518 905.679 515.495 901.87 515.495C897.573 515.495 894.839 512.395 894.839 507.365C894.839 506.975 894.863 506.462 894.937 505.9H913.955C914.15 504.875 914.224 503.581 914.224 502.507C914.224 496.086 910.415 492.106 904.287 492.106C896.89 492.106 891.543 498.894 891.543 507.487C891.543 513.859 895.181 518.376 901.797 518.376ZM40.127 613.068V665.912H57.8882C73.5986 665.912 82.8271 656.134 82.8271 639.472C82.8271 622.846 73.562 613.068 57.8882 613.068H40.127ZM46.7188 619H57.4487C69.4604 619 76.0889 626.325 76.0889 639.545C76.0889 652.655 69.4238 659.979 57.4487 659.979H46.7188V619ZM105.312 632.697C111.318 632.697 115.31 637.238 115.457 643.61H94.7656C95.1685 637.274 99.3433 632.697 105.312 632.697ZM115.31 654.999C114.248 658.588 110.696 661.042 105.862 661.042C99.0137 661.042 94.729 656.244 94.729 648.957V648.59H122.048V646.173C122.048 634.638 115.713 627.167 105.422 627.167C94.9121 627.167 88.1738 635.187 88.1738 647.016C88.1738 658.991 94.8022 666.571 105.715 666.571C114.028 666.571 120.474 661.664 121.572 654.999H115.31ZM130.544 665.912H136.917V633.063H144.68V627.826H136.88V623.615C136.88 619.843 138.528 618.012 141.97 618.012C143.032 618.012 144.094 618.122 144.863 618.231V613.068C143.948 612.921 142.41 612.775 140.981 612.775C133.95 612.775 130.544 616.254 130.544 623.578V627.826H125.234V633.063H130.544V665.912ZM151.602 665.912H157.974V627.826H151.602V665.912ZM154.788 621.417C156.985 621.417 158.779 619.623 158.779 617.462C158.779 615.265 156.985 613.507 154.788 613.507C152.627 613.507 150.833 615.265 150.833 617.462C150.833 619.623 152.627 621.417 154.788 621.417ZM166.58 665.912H172.952V643.5C172.952 637.055 176.87 632.807 182.876 632.807C188.735 632.807 191.628 636.176 191.628 642.328V665.912H198V641.193C198 632.55 193.167 627.167 184.817 627.167C178.921 627.167 174.856 629.804 172.732 633.905H172.585V627.826H166.58V665.912ZM206.46 665.912H212.832V627.826H206.46V665.912ZM209.646 621.417C211.843 621.417 213.638 619.623 213.638 617.462C213.638 615.265 211.843 613.507 209.646 613.507C207.485 613.507 205.691 615.265 205.691 617.462C205.691 619.623 207.485 621.417 209.646 621.417ZM223.489 618.634V627.826H217.812V633.063H223.489V656.024C223.489 663.349 226.199 666.205 233.193 666.205C234.695 666.205 236.453 666.095 237.222 665.912V660.565C236.782 660.639 235.317 660.749 234.585 660.749C231.326 660.749 229.861 659.174 229.861 655.695V633.063H237.258V627.826H229.861V618.634H223.489ZM244.399 665.912H250.771V627.826H244.399V665.912ZM247.585 621.417C249.783 621.417 251.577 619.623 251.577 617.462C251.577 615.265 249.783 613.507 247.585 613.507C245.425 613.507 243.63 615.265 243.63 617.462C243.63 619.623 245.425 621.417 247.585 621.417ZM275.161 666.571C285.671 666.571 292.776 658.991 292.776 646.869C292.776 634.711 285.671 627.167 275.161 627.167C264.614 627.167 257.51 634.711 257.51 646.869C257.51 658.991 264.614 666.571 275.161 666.571ZM275.161 660.968C268.423 660.968 263.992 655.841 263.992 646.869C263.992 637.897 268.423 632.77 275.161 632.77C281.899 632.77 286.294 637.897 286.294 646.869C286.294 655.841 281.899 660.968 275.161 660.968ZM299.221 665.912H305.593V643.5C305.593 637.055 309.512 632.807 315.518 632.807C321.377 632.807 324.27 636.176 324.27 642.328V665.912H330.642V641.193C330.642 632.55 325.808 627.167 317.458 627.167C311.562 627.167 307.498 629.804 305.374 633.905H305.227V627.826H299.221V665.912ZM344.155 666.278C346.499 666.278 348.33 664.447 348.33 662.104C348.33 659.76 346.499 657.929 344.155 657.929C341.812 657.929 339.98 659.76 339.98 662.104C339.98 664.447 341.812 666.278 344.155 666.278ZM344.155 639.325C346.499 639.325 348.33 637.494 348.33 635.15C348.33 632.807 346.499 630.976 344.155 630.976C341.812 630.976 339.98 632.807 339.98 635.15C339.98 637.494 341.812 639.325 344.155 639.325ZM375.247 665.912H381.619V633.063H389.382V627.826H381.582V623.615C381.582 619.843 383.23 618.012 386.672 618.012C387.734 618.012 388.796 618.122 389.565 618.231V613.068C388.65 612.921 387.112 612.775 385.684 612.775C378.652 612.775 375.247 616.254 375.247 623.578V627.826H369.937V633.063H375.247V665.912ZM427.249 627.826H420.876V650.202C420.876 656.684 417.141 660.932 410.952 660.932C405.056 660.932 402.163 657.599 402.163 651.41V627.826H395.791V652.545C395.791 661.188 400.662 666.571 408.975 666.571C414.834 666.571 418.789 664.118 421.06 659.723H421.206V665.912H427.249V627.826ZM435.525 665.912H441.897V643.5C441.897 637.055 445.815 632.807 451.821 632.807C457.681 632.807 460.574 636.176 460.574 642.328V665.912H466.946V641.193C466.946 632.55 462.112 627.167 453.762 627.167C447.866 627.167 443.801 629.804 441.677 633.905H441.531V627.826H435.525V665.912ZM479.434 676.422L484.451 657.782H477.676L474.124 676.422H479.434ZM524.771 666.571C534.512 666.571 540.957 658.844 540.957 646.869C540.957 634.931 534.475 627.167 524.88 627.167C519.497 627.167 515.066 629.84 512.686 634.198H512.539V613.068H506.167V665.912H512.246V659.467H512.393C514.846 663.861 519.204 666.571 524.771 666.571ZM523.525 632.77C530.264 632.77 534.438 638.227 534.438 646.869C534.438 655.585 530.264 660.968 523.525 660.968C517.08 660.968 512.502 655.365 512.502 646.869C512.502 638.41 517.08 632.77 523.525 632.77ZM578.713 627.826H572.341V650.202C572.341 656.684 568.606 660.932 562.417 660.932C556.521 660.932 553.628 657.599 553.628 651.41V627.826H547.256V652.545C547.256 661.188 552.126 666.571 560.439 666.571C566.299 666.571 570.254 664.118 572.524 659.723H572.671V665.912H578.713V627.826ZM589.041 618.634V627.826H583.364V633.063H589.041V656.024C589.041 663.349 591.75 666.205 598.745 666.205C600.247 666.205 602.004 666.095 602.773 665.912V660.565C602.334 660.639 600.869 660.749 600.137 660.749C596.877 660.749 595.413 659.174 595.413 655.695V633.063H602.81V627.826H595.413V618.634H589.041ZM625.002 665.912H631.375V642.035C631.375 636.762 635.037 632.807 640.09 632.807C644.814 632.807 647.891 635.81 647.891 640.387V665.912H654.263V641.706C654.263 636.542 657.815 632.807 662.869 632.807C667.886 632.807 670.779 635.883 670.779 641.083V665.912H677.151V639.618C677.151 632.074 672.28 627.167 664.736 627.167C659.39 627.167 654.922 629.877 652.798 634.418H652.651C651.003 629.804 647.158 627.167 641.958 627.167C636.831 627.167 632.949 629.877 631.155 633.905H631.008V627.826H625.002V665.912ZM701.064 666.571C711.575 666.571 718.679 658.991 718.679 646.869C718.679 634.711 711.575 627.167 701.064 627.167C690.518 627.167 683.413 634.711 683.413 646.869C683.413 658.991 690.518 666.571 701.064 666.571ZM701.064 660.968C694.326 660.968 689.895 655.841 689.895 646.869C689.895 637.897 694.326 632.77 701.064 632.77C707.803 632.77 712.197 637.897 712.197 646.869C712.197 655.841 707.803 660.968 701.064 660.968ZM725.125 665.912H731.497V642.182C731.497 636.798 734.719 633.246 739.663 633.246C741.201 633.246 742.556 633.429 743.069 633.612V627.423C742.556 627.35 741.604 627.167 740.505 627.167C736.038 627.167 732.522 629.84 731.277 634.052H731.13V627.826H725.125V665.912ZM761.709 632.697C767.715 632.697 771.707 637.238 771.853 643.61H751.162C751.565 637.274 755.74 632.697 761.709 632.697ZM771.707 654.999C770.645 658.588 767.092 661.042 762.258 661.042C755.41 661.042 751.125 656.244 751.125 648.957V648.59H778.445V646.173C778.445 634.638 772.109 627.167 761.819 627.167C751.309 627.167 744.57 635.187 744.57 647.016C744.57 658.991 751.199 666.571 762.112 666.571C770.425 666.571 776.87 661.664 777.969 654.999H771.707ZM816.055 666.571C826.565 666.571 833.669 658.991 833.669 646.869C833.669 634.711 826.565 627.167 816.055 627.167C805.508 627.167 798.403 634.711 798.403 646.869C798.403 658.991 805.508 666.571 816.055 666.571ZM816.055 660.968C809.316 660.968 804.885 655.841 804.885 646.869C804.885 637.897 809.316 632.77 816.055 632.77C822.793 632.77 827.188 637.897 827.188 646.869C827.188 655.841 822.793 660.968 816.055 660.968ZM842.166 665.912H848.538V633.063H856.301V627.826H848.501V623.615C848.501 619.843 850.149 618.012 853.591 618.012C854.653 618.012 855.715 618.122 856.484 618.231V613.068C855.569 612.921 854.031 612.775 852.603 612.775C845.571 612.775 842.166 616.254 842.166 623.578V627.826H836.855V633.063H842.166V665.912ZM878.604 665.912H884.976V627.826H878.604V665.912ZM881.79 621.417C883.987 621.417 885.781 619.623 885.781 617.462C885.781 615.265 883.987 613.507 881.79 613.507C879.629 613.507 877.834 615.265 877.834 617.462C877.834 619.623 879.629 621.417 881.79 621.417ZM895.632 618.634V627.826H889.956V633.063H895.632V656.024C895.632 663.349 898.342 666.205 905.337 666.205C906.838 666.205 908.596 666.095 909.365 665.912V660.565C908.926 660.639 907.461 660.749 906.729 660.749C903.469 660.749 902.004 659.174 902.004 655.695V633.063H909.402V627.826H902.004V618.634H895.632ZM67.8174 812.771H45.1562V797.028H66.6431V791.95H45.1562V777.255H67.8174V772.114H39.4434V817.912H67.8174V812.771ZM86.1938 805.344L94.0967 817.912H100.222L89.2407 801.186L100.381 784.904H94.2236L86.3843 797.282H86.2573L78.3228 784.904H72.1655L83.2104 801.408L71.9751 817.912H78.1006L86.0669 805.344H86.1938ZM115.298 813.786C111.331 813.786 108.696 811.723 108.696 808.581C108.696 805.471 111.235 803.503 115.679 803.217L124.502 802.678V805.375C124.502 810.136 120.503 813.786 115.298 813.786ZM114.06 818.483C118.503 818.483 122.693 816.008 124.661 812.231H124.788V817.912H130.024V795.092C130.024 788.522 125.137 784.333 117.393 784.333C109.585 784.333 104.697 788.713 104.316 794.426H109.648C110.347 791.188 113.013 789.189 117.266 789.189C121.836 789.189 124.502 791.601 124.502 795.632V798.393L115.044 798.933C107.427 799.377 103.079 802.932 103.079 808.581C103.079 814.516 107.49 818.483 114.06 818.483ZM137.039 817.912H142.561V797.219C142.561 792.648 145.735 789.221 150.115 789.221C154.209 789.221 156.875 791.823 156.875 795.791V817.912H162.397V796.933C162.397 792.458 165.476 789.221 169.856 789.221C174.204 789.221 176.711 791.887 176.711 796.394V817.912H182.234V795.124C182.234 788.586 178.013 784.333 171.475 784.333C166.841 784.333 162.969 786.682 161.128 790.617H161.001C159.573 786.618 156.24 784.333 151.733 784.333C147.29 784.333 143.926 786.682 142.371 790.173H142.244V784.904H137.039V817.912ZM205.308 784.333C200.515 784.333 196.675 786.777 194.644 790.49H194.517V784.904H189.28V828.925H194.802V812.548H194.929C196.897 816.167 200.706 818.483 205.435 818.483C213.75 818.483 219.431 811.755 219.431 801.408C219.431 791.062 213.718 784.333 205.308 784.333ZM204.229 813.627C198.579 813.627 194.771 808.771 194.771 801.408C194.771 794.077 198.579 789.189 204.229 789.189C210.1 789.189 213.782 793.95 213.782 801.408C213.782 808.898 210.1 813.627 204.229 813.627ZM225.303 817.912H230.825V772.114H225.303V817.912ZM251.519 789.125C256.724 789.125 260.183 793.061 260.31 798.583H242.378C242.727 793.093 246.345 789.125 251.519 789.125ZM260.183 808.454C259.263 811.564 256.184 813.691 251.995 813.691C246.06 813.691 242.346 809.533 242.346 803.217V802.9H266.023V800.805C266.023 790.808 260.532 784.333 251.614 784.333C242.505 784.333 236.665 791.284 236.665 801.535C236.665 811.914 242.41 818.483 251.868 818.483C259.072 818.483 264.658 814.23 265.61 808.454H260.183ZM305.474 800.646V798.361H284.653V800.646H305.474ZM341.338 817.912V774.431H357.366V772.114H322.771V774.431H338.831V817.912H341.338ZM362 817.912H364.443V798.234C364.443 791.379 368.918 786.618 375.393 786.618C381.519 786.618 385.549 790.522 385.549 796.87V817.912H387.993V796.552C387.993 789.189 383.169 784.396 375.933 784.396C370.378 784.396 365.999 787.507 364.539 792.077H364.443V772.114H362V817.912ZM408.179 818.42C416.938 818.42 422.905 811.882 422.905 801.408C422.905 790.935 416.938 784.396 408.179 784.396C399.419 784.396 393.484 790.935 393.484 801.408C393.484 811.882 399.419 818.42 408.179 818.42ZM408.179 816.198C400.847 816.198 395.959 810.581 395.959 801.408C395.959 792.236 400.847 786.618 408.179 786.618C415.51 786.618 420.43 792.236 420.43 801.408C420.43 810.549 415.51 816.198 408.179 816.198ZM427.825 793.347C427.825 797.568 430.649 800.202 436.838 801.662L441.599 802.773C446.899 804.042 448.994 805.883 448.994 809.375C448.994 813.437 445.059 816.293 439.409 816.293C433.887 816.293 429.792 813.183 429.189 808.613H426.746C427.253 814.357 432.427 818.42 439.346 818.42C446.455 818.42 451.47 814.611 451.47 809.216C451.47 804.582 448.899 802.17 442.329 800.615L437.759 799.536C432.458 798.298 430.237 796.457 430.237 793.251C430.237 789.348 433.95 786.523 439.06 786.523C444.329 786.523 447.883 789.475 448.55 794.362H450.93C450.327 788.237 445.757 784.396 439.092 784.396C432.522 784.396 427.825 788.142 427.825 793.347ZM469.751 786.586C476.702 786.586 481.367 791.95 481.399 799.758H457.849C458.198 791.887 462.896 786.586 469.751 786.586ZM481.05 808.676C480.066 812.993 476.13 816.23 470.068 816.23C462.673 816.23 457.817 810.93 457.817 801.948V801.821H483.938V800.424C483.938 790.839 478.32 784.396 469.783 784.396C461.055 784.396 455.31 791.188 455.31 801.44C455.31 812.104 461.055 818.42 470.037 818.42C477.4 818.42 482.415 814.262 483.525 808.676H481.05ZM515.898 818.42C524.658 818.42 530.625 811.882 530.625 801.408C530.625 790.935 524.658 784.396 515.898 784.396C507.139 784.396 501.204 790.935 501.204 801.408C501.204 811.882 507.139 818.42 515.898 818.42ZM515.898 816.198C508.567 816.198 503.679 810.581 503.679 801.408C503.679 792.236 508.567 786.618 515.898 786.618C523.23 786.618 528.149 792.236 528.149 801.408C528.149 810.549 523.23 816.198 515.898 816.198ZM538.147 776.24V784.904H533.228V787.031H538.147V810.39C538.147 815.849 540.21 817.976 545.034 817.976C545.415 817.976 547.446 817.944 547.668 817.912V815.754C547.542 815.754 545.542 815.786 545.383 815.786C542.051 815.786 540.591 814.23 540.591 810.327V787.031H547.224V784.904H540.591V776.24H538.147ZM553.635 817.912H556.079V798.234C556.079 791.379 560.554 786.618 567.029 786.618C573.154 786.618 577.185 790.522 577.185 796.87V817.912H579.629V796.552C579.629 789.189 574.805 784.396 567.568 784.396C562.014 784.396 557.634 787.507 556.174 792.077H556.079V772.114H553.635V817.912ZM599.561 786.586C606.511 786.586 611.177 791.95 611.208 799.758H587.659C588.008 791.887 592.705 786.586 599.561 786.586ZM610.859 808.676C609.875 812.993 605.94 816.23 599.878 816.23C592.483 816.23 587.627 810.93 587.627 801.948V801.821H613.748V800.424C613.748 790.839 608.13 784.396 599.592 784.396C590.864 784.396 585.12 791.188 585.12 801.44C585.12 812.104 590.864 818.42 599.846 818.42C607.209 818.42 612.224 814.262 613.335 808.676H610.859ZM619.397 817.912H621.873V797.346C621.873 791.157 625.078 786.745 630.283 786.745C631.838 786.745 633.013 787.062 633.711 787.412V784.936C633.108 784.682 631.934 784.396 630.632 784.396C626.252 784.396 623.142 786.872 621.777 791.411H621.714V784.904H619.397V817.912ZM663.926 818.42C670.051 818.42 674.844 814.389 676.367 809.057H676.462V817.912H678.779V772.114H676.304V793.569H676.24C674.78 788.427 670.02 784.396 663.894 784.396C655.642 784.396 649.866 791.252 649.866 801.408C649.866 811.564 655.674 818.42 663.926 818.42ZM664.243 786.618C671.321 786.618 676.335 792.648 676.335 801.408C676.335 810.168 671.321 816.198 664.243 816.198C657.229 816.198 652.341 810.231 652.341 801.376C652.341 792.553 657.229 786.618 664.243 786.618ZM686.714 817.912H689.189V784.904H686.714V817.912ZM687.952 776.779C688.999 776.779 689.888 775.922 689.888 774.843C689.888 773.764 688.999 772.939 687.952 772.939C686.904 772.939 686.016 773.764 686.016 774.843C686.016 775.922 686.904 776.779 687.952 776.779ZM696.013 793.347C696.013 797.568 698.838 800.202 705.027 801.662L709.788 802.773C715.088 804.042 717.183 805.883 717.183 809.375C717.183 813.437 713.247 816.293 707.598 816.293C702.075 816.293 697.981 813.183 697.378 808.613H694.934C695.442 814.357 700.615 818.42 707.534 818.42C714.644 818.42 719.658 814.611 719.658 809.216C719.658 804.582 717.087 802.17 710.518 800.615L705.947 799.536C700.647 798.298 698.425 796.457 698.425 793.251C698.425 789.348 702.139 786.523 707.249 786.523C712.517 786.523 716.072 789.475 716.738 794.362H719.119C718.516 788.237 713.945 784.396 707.28 784.396C700.71 784.396 696.013 788.142 696.013 793.347ZM751.27 794.87C750.286 788.967 745.176 784.396 738.035 784.396C729.211 784.396 723.499 790.998 723.499 801.408C723.499 811.914 729.18 818.42 738.066 818.42C745.081 818.42 750.254 814.23 751.238 808.232H748.794C747.778 812.961 743.684 816.198 738.066 816.198C730.671 816.198 725.974 810.517 725.974 801.408C725.974 792.363 730.671 786.618 738.066 786.618C743.748 786.618 747.842 790.141 748.826 794.87H751.27ZM769.741 818.42C778.501 818.42 784.468 811.882 784.468 801.408C784.468 790.935 778.501 784.396 769.741 784.396C760.981 784.396 755.046 790.935 755.046 801.408C755.046 811.882 760.981 818.42 769.741 818.42ZM769.741 816.198C762.41 816.198 757.522 810.581 757.522 801.408C757.522 792.236 762.41 786.618 769.741 786.618C777.073 786.618 781.992 792.236 781.992 801.408C781.992 810.549 777.073 816.198 769.741 816.198ZM790.149 817.912H792.625V797.346C792.625 791.157 795.83 786.745 801.035 786.745C802.59 786.745 803.765 787.062 804.463 787.412V784.936C803.86 784.682 802.686 784.396 801.384 784.396C797.004 784.396 793.894 786.872 792.529 791.411H792.466V784.904H790.149V817.912ZM819.126 818.42C825.251 818.42 830.044 814.389 831.567 809.057H831.663V817.912H833.979V772.114H831.504V793.569H831.44C829.98 788.427 825.22 784.396 819.094 784.396C810.842 784.396 805.066 791.252 805.066 801.408C805.066 811.564 810.874 818.42 819.126 818.42ZM819.443 786.618C826.521 786.618 831.536 792.648 831.536 801.408C831.536 810.168 826.521 816.198 819.443 816.198C812.429 816.198 807.542 810.231 807.542 801.376C807.542 792.553 812.429 786.618 819.443 786.618ZM870.034 818.42C878.254 818.42 883.936 811.564 883.936 801.376C883.936 791.252 878.223 784.396 870.034 784.396C864.131 784.396 859.37 788.046 857.751 793.632H857.656V772.114H855.212V817.912H857.561V809.089H857.656C859.402 814.802 864.163 818.42 870.034 818.42ZM869.622 786.618C876.699 786.618 881.428 792.585 881.428 801.376C881.428 810.231 876.699 816.198 869.622 816.198C862.607 816.198 857.656 810.104 857.656 801.44C857.656 792.744 862.639 786.618 869.622 786.618ZM902.661 818.42C911.421 818.42 917.388 811.882 917.388 801.408C917.388 790.935 911.421 784.396 902.661 784.396C893.901 784.396 887.966 790.935 887.966 801.408C887.966 811.882 893.901 818.42 902.661 818.42ZM902.661 816.198C895.33 816.198 890.442 810.581 890.442 801.408C890.442 792.236 895.33 786.618 902.661 786.618C909.993 786.618 914.912 792.236 914.912 801.408C914.912 810.549 909.993 816.198 902.661 816.198ZM924.91 776.24V784.904H919.99V787.031H924.91V810.39C924.91 815.849 926.973 817.976 931.797 817.976C932.178 817.976 934.209 817.944 934.431 817.912V815.754C934.304 815.754 932.305 815.786 932.146 815.786C928.813 815.786 927.354 814.23 927.354 810.327V787.031H933.987V784.904H927.354V776.24H924.91ZM939.319 793.347C939.319 797.568 942.144 800.202 948.333 801.662L953.093 802.773C958.394 804.042 960.488 805.883 960.488 809.375C960.488 813.437 956.553 816.293 950.903 816.293C945.381 816.293 941.287 813.183 940.684 808.613H938.24C938.748 814.357 943.921 818.42 950.84 818.42C957.949 818.42 962.964 814.611 962.964 809.216C962.964 804.582 960.393 802.17 953.823 800.615L949.253 799.536C943.953 798.298 941.731 796.457 941.731 793.251C941.731 789.348 945.444 786.523 950.554 786.523C955.823 786.523 959.377 789.475 960.044 794.362H962.424C961.821 788.237 957.251 784.396 950.586 784.396C944.016 784.396 939.319 788.142 939.319 793.347ZM992.004 816.262C986.895 816.262 983.213 813.247 983.213 809.025C983.213 804.646 986.577 802.043 992.766 801.567L1003.78 800.773V805.661C1003.78 811.533 998.511 816.262 992.004 816.262ZM991.655 818.42C997.178 818.42 1002.13 815.31 1003.81 810.834H1003.87V817.912H1006.25V795.6C1006.25 788.713 1001.75 784.396 994.512 784.396C987.307 784.396 982.546 788.364 981.912 794.489H984.292C985.117 789.506 988.735 786.618 994.48 786.618C1000.32 786.618 1003.78 790.078 1003.78 795.791V798.742L992.417 799.536C984.8 800.139 980.737 803.376 980.737 809.025C980.737 814.58 985.212 818.42 991.655 818.42ZM1013.33 817.912H1015.81V797.346C1015.81 791.157 1019.01 786.745 1024.22 786.745C1025.77 786.745 1026.95 787.062 1027.65 787.412V784.936C1027.04 784.682 1025.87 784.396 1024.57 784.396C1020.19 784.396 1017.08 786.872 1015.71 791.411H1015.65V784.904H1013.33V817.912ZM1042.69 786.586C1049.64 786.586 1054.31 791.95 1054.34 799.758H1030.79C1031.14 791.887 1035.83 786.586 1042.69 786.586ZM1053.99 808.676C1053.01 812.993 1049.07 816.23 1043.01 816.23C1035.61 816.23 1030.76 810.93 1030.76 801.948V801.821H1056.88V800.424C1056.88 790.839 1051.26 784.396 1042.72 784.396C1033.99 784.396 1028.25 791.188 1028.25 801.44C1028.25 812.104 1033.99 818.42 1042.98 818.42C1050.34 818.42 1055.35 814.262 1056.46 808.676H1053.99ZM1077.38 817.912H1079.86V787.031H1087.38V784.904H1079.86V780.207C1079.86 775.986 1081.86 774.335 1085.25 774.335C1086.14 774.335 1086.97 774.431 1087.66 774.589V772.495C1087.06 772.336 1086.04 772.209 1085 772.209C1080.24 772.209 1077.38 774.589 1077.38 780.048V784.904H1072.78V787.031H1077.38V817.912ZM1118.16 784.904H1115.69V804.709C1115.69 811.691 1110.96 816.198 1104.71 816.198C1098.71 816.198 1094.74 812.453 1094.74 806.01V784.904H1092.3V806.391C1092.3 813.786 1097.09 818.42 1104.2 818.42C1109.66 818.42 1114.29 815.183 1115.75 810.739H1115.85V817.912H1118.16V784.904ZM1125.5 817.912H1127.97V798.203C1127.97 791.347 1132.35 786.618 1138.73 786.618C1144.86 786.618 1148.89 790.458 1148.89 796.838V817.912H1151.36V796.521C1151.36 789.094 1146.57 784.396 1139.3 784.396C1133.68 784.396 1129.37 787.539 1127.88 792.077H1127.81V784.904H1125.5V817.912ZM53.7891 888.42C62.0093 888.42 67.6904 881.564 67.6904 871.376C67.6904 861.252 61.9775 854.396 53.7891 854.396C47.8857 854.396 43.125 858.046 41.5063 863.632H41.4111V842.114H38.9673V887.912H41.3159V879.089H41.4111C43.1567 884.802 47.9175 888.42 53.7891 888.42ZM53.3765 856.618C60.4541 856.618 65.1831 862.585 65.1831 871.376C65.1831 880.231 60.4541 886.198 53.3765 886.198C46.3623 886.198 41.4111 880.104 41.4111 871.44C41.4111 862.744 46.394 856.618 53.3765 856.618ZM99.0479 854.904H96.5723V874.709C96.5723 881.691 91.8433 886.198 85.5908 886.198C79.5923 886.198 75.625 882.453 75.625 876.01V854.904H73.1812V876.391C73.1812 883.786 77.9736 888.42 85.083 888.42C90.542 888.42 95.1758 885.183 96.6357 880.739H96.731V887.912H99.0479V854.904ZM108.22 846.24V854.904H103.301V857.031H108.22V880.39C108.22 885.849 110.283 887.976 115.107 887.976C115.488 887.976 117.52 887.944 117.742 887.912V885.754C117.615 885.754 115.615 885.786 115.457 885.786C112.124 885.786 110.664 884.23 110.664 880.327V857.031H117.297V854.904H110.664V846.24H108.22ZM138.499 846.24V854.904H133.579V857.031H138.499V880.39C138.499 885.849 140.562 887.976 145.386 887.976C145.767 887.976 147.798 887.944 148.02 887.912V885.754C147.893 885.754 145.894 885.786 145.735 885.786C142.402 885.786 140.942 884.23 140.942 880.327V857.031H147.576V854.904H140.942V846.24H138.499ZM153.987 887.912H156.431V868.234C156.431 861.379 160.906 856.618 167.38 856.618C173.506 856.618 177.537 860.522 177.537 866.87V887.912H179.98V866.552C179.98 859.189 175.156 854.396 167.92 854.396C162.366 854.396 157.986 857.507 156.526 862.077H156.431V842.114H153.987V887.912ZM199.912 856.586C206.863 856.586 211.528 861.95 211.56 869.758H188.01C188.359 861.887 193.057 856.586 199.912 856.586ZM211.211 878.676C210.227 882.993 206.292 886.23 200.229 886.23C192.834 886.23 187.979 880.93 187.979 871.948V871.821H214.099V870.424C214.099 860.839 208.481 854.396 199.944 854.396C191.216 854.396 185.471 861.188 185.471 871.44C185.471 882.104 191.216 888.42 200.198 888.42C207.561 888.42 212.576 884.262 213.687 878.676H211.211ZM259.961 885.595H235.935V842.114H233.428V887.912H259.961V885.595ZM274.402 886.262C269.292 886.262 265.61 883.247 265.61 879.025C265.61 874.646 268.975 872.043 275.164 871.567L286.177 870.773V875.661C286.177 881.533 280.908 886.262 274.402 886.262ZM274.053 888.42C279.575 888.42 284.526 885.31 286.208 880.834H286.272V887.912H288.652V865.6C288.652 858.713 284.146 854.396 276.909 854.396C269.705 854.396 264.944 858.364 264.309 864.489H266.689C267.515 859.506 271.133 856.618 276.877 856.618C282.717 856.618 286.177 860.078 286.177 865.791V868.742L274.814 869.536C267.197 870.139 263.135 873.376 263.135 879.025C263.135 884.58 267.61 888.42 274.053 888.42ZM320.073 854.904H317.471L306.235 885.437H306.14L294.905 854.904H292.271L304.712 887.912H307.664L320.073 854.904ZM336.514 856.586C343.464 856.586 348.13 861.95 348.162 869.758H324.612C324.961 861.887 329.658 856.586 336.514 856.586ZM347.812 878.676C346.829 882.993 342.893 886.23 336.831 886.23C329.436 886.23 324.58 880.93 324.58 871.948V871.821H350.701V870.424C350.701 860.839 345.083 854.396 336.545 854.396C327.817 854.396 322.073 861.188 322.073 871.44C322.073 882.104 327.817 888.42 336.799 888.42C344.163 888.42 349.177 884.262 350.288 878.676H347.812ZM356.35 887.912H358.826V868.203C358.826 861.347 363.206 856.618 369.585 856.618C375.71 856.618 379.741 860.458 379.741 866.838V887.912H382.217V866.521C382.217 859.094 377.424 854.396 370.156 854.396C364.539 854.396 360.222 857.539 358.73 862.077H358.667V854.904H356.35V887.912ZM401.768 888.42C407.893 888.42 412.686 884.389 414.209 879.057H414.304V887.912H416.621V842.114H414.146V863.569H414.082C412.622 858.427 407.861 854.396 401.736 854.396C393.484 854.396 387.708 861.252 387.708 871.408C387.708 881.564 393.516 888.42 401.768 888.42ZM402.085 856.618C409.163 856.618 414.177 862.648 414.177 871.408C414.177 880.168 409.163 886.198 402.085 886.198C395.071 886.198 390.183 880.231 390.183 871.376C390.183 862.553 395.071 856.618 402.085 856.618ZM437.061 856.586C444.011 856.586 448.677 861.95 448.708 869.758H425.159C425.508 861.887 430.205 856.586 437.061 856.586ZM448.359 878.676C447.375 882.993 443.44 886.23 437.378 886.23C429.983 886.23 425.127 880.93 425.127 871.948V871.821H451.248V870.424C451.248 860.839 445.63 854.396 437.092 854.396C428.364 854.396 422.62 861.188 422.62 871.44C422.62 882.104 428.364 888.42 437.346 888.42C444.709 888.42 449.724 884.262 450.835 878.676H448.359ZM456.897 887.912H459.373V867.346C459.373 861.157 462.578 856.745 467.783 856.745C469.338 856.745 470.513 857.062 471.211 857.412V854.936C470.608 854.682 469.434 854.396 468.132 854.396C463.752 854.396 460.642 856.872 459.277 861.411H459.214V854.904H456.897V887.912ZM504.155 888.42C512.375 888.42 518.057 881.564 518.057 871.376C518.057 861.252 512.344 854.396 504.155 854.396C498.252 854.396 493.491 858.046 491.873 863.632H491.777V842.114H489.333V887.912H491.682V879.089H491.777C493.523 884.802 498.284 888.42 504.155 888.42ZM503.743 856.618C510.82 856.618 515.549 862.585 515.549 871.376C515.549 880.231 510.82 886.198 503.743 886.198C496.729 886.198 491.777 880.104 491.777 871.44C491.777 862.744 496.76 856.618 503.743 856.618ZM536.782 888.42C545.542 888.42 551.509 881.882 551.509 871.408C551.509 860.935 545.542 854.396 536.782 854.396C528.022 854.396 522.087 860.935 522.087 871.408C522.087 881.882 528.022 888.42 536.782 888.42ZM536.782 886.198C529.451 886.198 524.563 880.581 524.563 871.408C524.563 862.236 529.451 856.618 536.782 856.618C544.114 856.618 549.033 862.236 549.033 871.408C549.033 880.549 544.114 886.198 536.782 886.198ZM559.031 846.24V854.904H554.111V857.031H559.031V880.39C559.031 885.849 561.094 887.976 565.918 887.976C566.299 887.976 568.33 887.944 568.552 887.912V885.754C568.425 885.754 566.426 885.786 566.267 885.786C562.935 885.786 561.475 884.23 561.475 880.327V857.031H568.108V854.904H561.475V846.24H559.031ZM587.754 887.912H590.229V854.904H587.754V887.912ZM588.992 846.779C590.039 846.779 590.928 845.922 590.928 844.843C590.928 843.764 590.039 842.939 588.992 842.939C587.944 842.939 587.056 843.764 587.056 844.843C587.056 845.922 587.944 846.779 588.992 846.779ZM597.053 863.347C597.053 867.568 599.878 870.202 606.067 871.662L610.828 872.773C616.128 874.042 618.223 875.883 618.223 879.375C618.223 883.437 614.287 886.293 608.638 886.293C603.115 886.293 599.021 883.183 598.418 878.613H595.974C596.482 884.357 601.655 888.42 608.574 888.42C615.684 888.42 620.698 884.611 620.698 879.216C620.698 874.582 618.127 872.17 611.558 870.615L606.987 869.536C601.687 868.298 599.465 866.457 599.465 863.251C599.465 859.348 603.179 856.523 608.289 856.523C613.557 856.523 617.112 859.475 617.778 864.362H620.159C619.556 858.237 614.985 854.396 608.32 854.396C601.75 854.396 597.053 858.142 597.053 863.347ZM641.169 887.912H646.692V859.443H653.42V854.904H646.66V851.254C646.66 847.985 648.088 846.398 651.072 846.398C651.992 846.398 652.913 846.494 653.579 846.589V842.114C652.786 841.987 651.453 841.86 650.215 841.86C644.121 841.86 641.169 844.875 641.169 851.223V854.904H636.567V859.443H641.169V887.912ZM686.238 854.904H680.715V874.296C680.715 879.914 677.478 883.596 672.114 883.596C667.004 883.596 664.497 880.708 664.497 875.344V854.904H658.975V876.328C658.975 883.818 663.196 888.483 670.4 888.483C675.479 888.483 678.906 886.357 680.874 882.548H681.001V887.912H686.238V854.904ZM693.411 887.912H698.933V868.488C698.933 862.902 702.329 859.221 707.534 859.221C712.612 859.221 715.12 862.141 715.12 867.473V887.912H720.642V866.489C720.642 858.999 716.453 854.333 709.216 854.333C704.106 854.333 700.583 856.618 698.743 860.173H698.616V854.904H693.411V887.912ZM727.688 887.912H733.21V868.488C733.21 862.902 736.606 859.221 741.812 859.221C746.89 859.221 749.397 862.141 749.397 867.473V887.912H754.919V866.489C754.919 858.999 750.73 854.333 743.494 854.333C738.384 854.333 734.861 856.618 733.02 860.173H732.893V854.904H727.688V887.912ZM775.2 859.125C780.405 859.125 783.865 863.061 783.992 868.583H766.06C766.409 863.093 770.027 859.125 775.2 859.125ZM783.865 878.454C782.944 881.564 779.866 883.691 775.676 883.691C769.741 883.691 766.028 879.533 766.028 873.217V872.9H789.705V870.805C789.705 860.808 784.214 854.333 775.295 854.333C766.187 854.333 760.347 861.284 760.347 871.535C760.347 881.914 766.091 888.483 775.549 888.483C782.754 888.483 788.34 884.23 789.292 878.454H783.865ZM795.291 887.912H800.813V867.346C800.813 862.68 803.606 859.602 807.891 859.602C809.224 859.602 810.398 859.76 810.842 859.919V854.555C810.398 854.492 809.573 854.333 808.621 854.333C804.749 854.333 801.702 856.65 800.623 860.3H800.496V854.904H795.291V887.912ZM36.3916 988.513C36.6846 994.348 41.8604 998.425 49.0869 998.425C56.46 998.425 61.3672 994.348 61.3672 988.513C61.3672 983.825 58.3154 981.213 51.5039 979.528L47.5732 978.527C41.9092 977.111 39.3213 975.085 39.3213 971.569C39.3213 967.126 43.5449 963.952 48.8428 963.952C54.3848 963.952 58.5107 967.028 58.7793 971.252H60.708C60.4883 966.076 55.5322 962.17 48.8916 962.17C42.4707 962.17 37.3438 966.125 37.3438 971.618C37.3438 976.037 40.2979 978.674 46.8164 980.334L50.9912 981.359C56.8994 982.849 59.3896 984.973 59.3896 988.659C59.3896 993.249 55.2148 996.643 49.2334 996.643C43.1055 996.643 38.6133 993.298 38.3203 988.513H36.3916ZM66.543 997.912H68.4473V972.521H66.543V997.912ZM67.4951 966.271C68.3008 966.271 68.9844 965.612 68.9844 964.782C68.9844 963.952 68.3008 963.317 67.4951 963.317C66.6895 963.317 66.0059 963.952 66.0059 964.782C66.0059 965.612 66.6895 966.271 67.4951 966.271ZM74.2822 997.912H76.1865V982.751C76.1865 977.355 79.1406 973.84 83.3887 973.84C87.2705 973.84 90.0293 976.745 90.0293 981.14V997.912H91.9092V982.116C91.9092 977.233 94.8145 973.84 99.0869 973.84C103.237 973.84 105.752 976.647 105.752 981.213V997.912H107.656V980.773C107.656 975.5 104.409 972.131 99.5264 972.131C95.376 972.131 92.3486 974.89 91.4697 978.161H91.3965C90.6396 974.792 87.7832 972.131 83.7793 972.131C79.7754 972.131 77.0654 974.67 76.1133 978.039H76.0645V972.521H74.2822V997.912ZM113.32 997.912H115.225V972.521H113.32V997.912ZM114.272 966.271C115.078 966.271 115.762 965.612 115.762 964.782C115.762 963.952 115.078 963.317 114.272 963.317C113.467 963.317 112.783 963.952 112.783 964.782C112.783 965.612 113.467 966.271 114.272 966.271ZM121.279 997.912H123.184V962.683H121.279V997.912ZM136.929 996.643C132.998 996.643 130.166 994.323 130.166 991.076C130.166 987.707 132.754 985.705 137.515 985.339L145.986 984.729V988.488C145.986 993.005 141.934 996.643 136.929 996.643ZM136.66 998.303C140.908 998.303 144.717 995.91 146.011 992.468H146.06V997.912H147.891V980.749C147.891 975.451 144.424 972.131 138.857 972.131C133.315 972.131 129.653 975.183 129.165 979.895H130.996C131.631 976.062 134.414 973.84 138.833 973.84C143.325 973.84 145.986 976.501 145.986 980.896V983.166L137.246 983.776C131.387 984.24 128.262 986.73 128.262 991.076C128.262 995.349 131.704 998.303 136.66 998.303ZM153.335 997.912H155.239V982.092C155.239 977.331 157.705 973.938 161.709 973.938C162.905 973.938 163.809 974.182 164.346 974.45V972.546C163.882 972.351 162.979 972.131 161.978 972.131C158.608 972.131 156.216 974.035 155.166 977.526H155.117V972.521H153.335V997.912ZM208.828 972.521H206.826L200.332 995.812H200.259L193.203 972.521H191.055L183.975 995.812H183.926L177.407 972.521H175.43L182.803 997.912H185.049L192.08 974.963H192.153L199.233 997.912H201.431L208.828 972.521ZM221.865 998.303C228.604 998.303 233.193 993.273 233.193 985.217C233.193 977.16 228.604 972.131 221.865 972.131C215.127 972.131 210.562 977.16 210.562 985.217C210.562 993.273 215.127 998.303 221.865 998.303ZM221.865 996.594C216.226 996.594 212.466 992.272 212.466 985.217C212.466 978.161 216.226 973.84 221.865 973.84C227.505 973.84 231.289 978.161 231.289 985.217C231.289 992.248 227.505 996.594 221.865 996.594ZM237.563 997.912H239.468V982.092C239.468 977.331 241.934 973.938 245.938 973.938C247.134 973.938 248.037 974.182 248.574 974.45V972.546C248.11 972.351 247.207 972.131 246.206 972.131C242.837 972.131 240.444 974.035 239.395 977.526H239.346V972.521H237.563V997.912ZM259.854 998.303C264.565 998.303 268.252 995.202 269.424 991.101H269.497V997.912H271.279V962.683H269.375V979.187H269.326C268.203 975.231 264.541 972.131 259.829 972.131C253.481 972.131 249.038 977.404 249.038 985.217C249.038 993.029 253.506 998.303 259.854 998.303ZM260.098 973.84C265.542 973.84 269.399 978.479 269.399 985.217C269.399 991.955 265.542 996.594 260.098 996.594C254.702 996.594 250.942 992.004 250.942 985.192C250.942 978.405 254.702 973.84 260.098 973.84ZM276.577 979.016C276.577 982.263 278.75 984.289 283.511 985.412L287.173 986.267C291.25 987.243 292.861 988.659 292.861 991.345C292.861 994.47 289.834 996.667 285.488 996.667C281.24 996.667 278.091 994.274 277.627 990.759H275.747C276.138 995.178 280.117 998.303 285.439 998.303C290.908 998.303 294.766 995.373 294.766 991.223C294.766 987.658 292.788 985.803 287.734 984.606L284.219 983.776C280.142 982.824 278.433 981.408 278.433 978.942C278.433 975.939 281.289 973.767 285.22 973.767C289.272 973.767 292.007 976.037 292.52 979.797H294.351C293.887 975.085 290.371 972.131 285.244 972.131C280.19 972.131 276.577 975.012 276.577 979.016ZM302.236 998.107C303.115 998.107 303.848 997.375 303.848 996.472C303.848 995.593 303.115 994.86 302.236 994.86C301.333 994.86 300.601 995.593 300.601 996.472C300.601 997.375 301.333 998.107 302.236 998.107ZM302.236 979.187C303.115 979.187 303.848 978.454 303.848 977.551C303.848 976.672 303.115 975.939 302.236 975.939C301.333 975.939 300.601 976.672 300.601 977.551C300.601 978.454 301.333 979.187 302.236 979.187ZM321.572 997.912H323.501L328.506 974.182H334.561L334.927 972.521H328.848L329.556 969.128C330.215 966.027 332.07 964.44 334.78 964.44C335.61 964.44 336.465 964.562 337.075 964.758L337.393 963.122C336.66 962.927 335.732 962.805 334.78 962.805C330.972 962.805 328.506 964.855 327.651 969.055L326.943 972.521H322.915L322.573 974.182H326.602L321.572 997.912ZM358.633 972.521H356.777L353.408 988.171C352.432 992.785 348.55 996.594 343.643 996.594C339.346 996.594 336.782 994.152 336.782 990.344C336.782 989.587 336.904 988.562 337.1 987.707L340.322 972.521H338.442L335.122 988.024C334.951 988.977 334.854 989.978 334.854 990.832C334.854 995.08 338.076 998.327 343.081 998.327C347.28 998.327 350.625 995.983 352.407 992.932H352.505L351.431 997.912H353.237L358.633 972.521ZM358.804 997.912H360.684L364.053 982.263C365.029 977.575 368.887 973.84 373.721 973.84C377.969 973.84 380.679 976.354 380.679 980.114C380.679 980.896 380.557 981.774 380.337 982.727L377.114 997.912H379.019L382.339 982.36C382.534 981.433 382.632 980.505 382.632 979.675C382.632 975.329 379.238 972.106 374.331 972.106C370.156 972.106 366.958 974.328 365.054 977.6H364.956L366.03 972.521H364.199L358.804 997.912ZM384.39 997.912H386.27L389.639 982.263C390.615 977.575 394.473 973.84 399.307 973.84C403.555 973.84 406.265 976.354 406.265 980.114C406.265 980.896 406.143 981.774 405.923 982.727L402.7 997.912H404.604L407.925 982.36C408.12 981.433 408.218 980.505 408.218 979.675C408.218 975.329 404.824 972.106 399.917 972.106C395.742 972.106 392.544 974.328 390.64 977.6H390.542L391.616 972.521H389.785L384.39 997.912ZM413.662 983.874C414.712 978.015 418.911 973.815 424.209 973.815C429.092 973.815 431.875 977.185 431.875 982.019C431.875 982.873 431.851 983.312 431.729 983.874H413.662ZM421.255 998.327C426.602 998.327 430.752 995.324 432.266 990.661H430.337C428.945 994.396 425.698 996.618 421.353 996.618C416.348 996.618 413.198 993.2 413.198 987.707C413.198 987.17 413.271 986.413 413.394 985.485H433.413C433.633 984.558 433.779 983.264 433.779 982.141C433.779 975.964 430.117 972.106 424.258 972.106C416.787 972.106 411.294 978.918 411.294 987.854C411.294 994.128 415.029 998.327 421.255 998.327ZM439.004 979.064C439.004 982.043 440.835 983.972 445.01 985.388L447.231 986.145C451.333 987.561 452.651 988.806 452.651 991.223C452.651 994.396 449.673 996.667 445.449 996.667C441.006 996.667 437.783 994.226 437.271 990.588H435.366C435.757 995.104 439.785 998.327 445.352 998.327C450.771 998.327 454.58 995.373 454.58 991.149C454.58 987.951 452.773 986.12 448.159 984.533L445.986 983.776C442.324 982.556 440.884 981.164 440.884 978.918C440.884 975.964 443.765 973.767 447.769 973.767C451.772 973.767 454.604 976.184 454.971 979.577H456.826C456.509 975.207 452.92 972.131 447.842 972.131C442.666 972.131 439.004 975.036 439.004 979.064ZM465.2 997.961C465.42 997.961 466.592 997.937 466.836 997.888L467.202 996.228C467.031 996.252 465.908 996.276 465.688 996.276C463.247 996.276 461.758 995.251 461.758 993.176C461.758 992.614 461.855 991.955 462.026 991.198L465.664 974.182H471.133L471.475 972.521H466.006L467.422 965.808H465.518L464.102 972.521H460.391L460.049 974.182H463.735L460.049 991.516C459.878 992.346 459.78 993.054 459.78 993.688C459.78 996.496 461.904 997.961 465.2 997.961ZM471.401 1004.26L476.382 993.396H474.38L469.766 1004.26H471.401ZM495.498 997.912H497.427L502.432 974.182H508.486L508.853 972.521H502.773L503.481 969.128C504.141 966.027 505.996 964.44 508.706 964.44C509.536 964.44 510.391 964.562 511.001 964.758L511.318 963.122C510.586 962.927 509.658 962.805 508.706 962.805C504.897 962.805 502.432 964.855 501.577 969.055L500.869 972.521H496.841L496.499 974.182H500.527L495.498 997.912ZM532.559 972.521H530.703L527.334 988.171C526.357 992.785 522.476 996.594 517.568 996.594C513.271 996.594 510.708 994.152 510.708 990.344C510.708 989.587 510.83 988.562 511.025 987.707L514.248 972.521H512.368L509.048 988.024C508.877 988.977 508.779 989.978 508.779 990.832C508.779 995.08 512.002 998.327 517.007 998.327C521.206 998.327 524.551 995.983 526.333 992.932H526.431L525.356 997.912H527.163L532.559 972.521ZM532.729 997.912H534.609L537.979 982.263C538.955 977.575 542.812 973.84 547.646 973.84C551.895 973.84 554.604 976.354 554.604 980.114C554.604 980.896 554.482 981.774 554.263 982.727L551.04 997.912H552.944L556.265 982.36C556.46 981.433 556.558 980.505 556.558 979.675C556.558 975.329 553.164 972.106 548.257 972.106C544.082 972.106 540.884 974.328 538.979 977.6H538.882L539.956 972.521H538.125L532.729 997.912ZM558.315 997.912H560.195L563.564 982.263C564.541 977.575 568.398 973.84 573.232 973.84C577.48 973.84 580.19 976.354 580.19 980.114C580.19 980.896 580.068 981.774 579.849 982.727L576.626 997.912H578.53L581.851 982.36C582.046 981.433 582.144 980.505 582.144 979.675C582.144 975.329 578.75 972.106 573.843 972.106C569.668 972.106 566.47 974.328 564.565 977.6H564.468L565.542 972.521H563.711L558.315 997.912ZM587.588 983.874C588.638 978.015 592.837 973.815 598.135 973.815C603.018 973.815 605.801 977.185 605.801 982.019C605.801 982.873 605.776 983.312 605.654 983.874H587.588ZM595.181 998.327C600.527 998.327 604.678 995.324 606.191 990.661H604.263C602.871 994.396 599.624 996.618 595.278 996.618C590.273 996.618 587.124 993.2 587.124 987.707C587.124 987.17 587.197 986.413 587.319 985.485H607.339C607.559 984.558 607.705 983.264 607.705 982.141C607.705 975.964 604.043 972.106 598.184 972.106C590.713 972.106 585.22 978.918 585.22 987.854C585.22 994.128 588.955 998.327 595.181 998.327ZM608.999 997.912H610.879L614.15 982.604C615.273 977.355 618.374 973.938 622.28 973.938C623.599 973.938 624.917 974.255 625.527 974.694L625.942 972.814C625.308 972.473 623.94 972.155 622.671 972.155C619.619 972.155 617.178 973.742 615.371 976.892H615.273L616.226 972.521H614.395L608.999 997.912ZM626.846 983.874C627.896 978.015 632.095 973.815 637.393 973.815C642.275 973.815 645.059 977.185 645.059 982.019C645.059 982.873 645.034 983.312 644.912 983.874H626.846ZM634.438 998.327C639.785 998.327 643.936 995.324 645.449 990.661H643.521C642.129 994.396 638.882 996.618 634.536 996.618C629.531 996.618 626.382 993.2 626.382 987.707C626.382 987.17 626.455 986.413 626.577 985.485H646.597C646.816 984.558 646.963 983.264 646.963 982.141C646.963 975.964 643.301 972.106 637.441 972.106C629.971 972.106 624.478 978.918 624.478 987.854C624.478 994.128 628.213 998.327 634.438 998.327ZM652.188 979.064C652.188 982.043 654.019 983.972 658.193 985.388L660.415 986.145C664.517 987.561 665.835 988.806 665.835 991.223C665.835 994.396 662.856 996.667 658.633 996.667C654.189 996.667 650.967 994.226 650.454 990.588H648.55C648.94 995.104 652.969 998.327 658.535 998.327C663.955 998.327 667.764 995.373 667.764 991.149C667.764 987.951 665.957 986.12 661.343 984.533L659.17 983.776C655.508 982.556 654.067 981.164 654.067 978.918C654.067 975.964 656.948 973.767 660.952 973.767C664.956 973.767 667.788 976.184 668.154 979.577H670.01C669.692 975.207 666.104 972.131 661.025 972.131C655.85 972.131 652.188 975.036 652.188 979.064ZM678.384 997.961C678.604 997.961 679.775 997.937 680.02 997.888L680.386 996.228C680.215 996.252 679.092 996.276 678.872 996.276C676.431 996.276 674.941 995.251 674.941 993.176C674.941 992.614 675.039 991.955 675.21 991.198L678.848 974.182H684.316L684.658 972.521H679.189L680.605 965.808H678.701L677.285 972.521H673.574L673.232 974.182H676.919L673.232 991.516C673.062 992.346 672.964 993.054 672.964 993.688C672.964 996.496 675.088 997.961 678.384 997.961Z" fill="white"/>
</svg>
